<?xml version="1.0" encoding="utf-8"?>
<!-- Generator: Adobe Illustrator 27.5.0, SVG Export Plug-In . SVG Version: 6.00 Build 0)  -->
<svg version="1.1" id="Layer_2" xmlns="http://www.w3.org/2000/svg" xmlns:xlink="http://www.w3.org/1999/xlink" x="0px" y="0px"
	 viewBox="0 0 198 127.334" style="enable-background:new 0 0 198 127.334;" xml:space="preserve">
<g>
	<g>
		<ellipse cx="99.564" cy="73.967" rx="93.388" ry="44.709"/>
		<ellipse style="fill:#E6EFF0;" cx="99.564" cy="73.826" rx="91.897" ry="43.423"/>
	</g>
	<g>
		<path d="M173.46,70.141c0,19.23-32.565,34.822-72.734,34.822c-40.171,0-72.736-15.592-72.736-34.822
			c0-19.231,32.565-34.821,72.736-34.821C140.895,35.319,173.46,50.909,173.46,70.141z"/>
		<path style="fill:#E6EFF0;" d="M172.3,70.031c0,18.678-32.045,33.819-71.574,33.819c-39.53,0-71.575-15.142-71.575-33.819
			c0-18.679,32.044-33.82,71.575-33.82C140.255,36.211,172.3,51.353,172.3,70.031z"/>
		<path style="fill:#E6EFF0;" d="M172.3,70.031c0,18.678-32.045,33.819-71.574,33.819c-39.53,0-71.575-15.142-71.575-33.819
			c0-18.679,32.044-33.82,71.575-33.82C140.255,36.211,172.3,51.353,172.3,70.031z"/>
		<path style="fill:#DDDDDD;" d="M17.397,73.909c2.886,0.706,5.81,0.888,8.77,0.901c1.009,0.004,1.24,1.196,0.706,1.757
			c0.798,0.815,1.291,1.827,1.737,3.074c1.62,4.528,4.892,8.597,8.977,11.183c7.242,4.585,15.712,7.713,23.999,9.809
			c15.492,3.918,32.201,4.723,48.172,3.294c0.224-0.284,0.571-0.481,1.014-0.413c0.455,0.068,0.918,0.125,1.385,0.18
			c0.169-0.018,0.34-0.031,0.51-0.05c0.261-0.028,0.456,0.047,0.612,0.16c8.024,0.718,17.515-0.579,24.88-2.773
			c6.339-1.889,12.719-3.997,18.672-6.907c5.825-2.848,11.74-6.311,15.917-11.387c2.477-3.011,4.819-6.65,5.467-10.572
			c1.004-6.072-2.156-8.986-4.932-13.647c-0.923-1.55-1.212-4.568,1.279-4.72c3.083-0.187,6.777,1.78,9.212,3.527
			c0.91,0.652,1.718,1.348,2.477,2.064c-12.595-16.884-46.648-28.985-86.688-28.985c-30.576,0-57.658,7.058-74.364,17.911
			c-0.141,5.438-4.114,9.574-7.525,13.817C14.787,65.725,10.233,72.158,17.397,73.909z"/>
		<path style="fill:#DDDDDD;" d="M162.28,72.785c1.876-2.951,4.72-6.771,5.212-10.307c0.694-4.991-4.071-7.813-7.858-9.752
			c-6.438-3.296-13.386-5.146-20.303-7.131c-8.065-2.313-15.83-3.542-24.248-2.697c-16.854,1.691-34.261,4.766-50.441,9.836
			c-8.482,2.656-17.036,5.664-24.934,9.775c-3.66,1.906-7.245,3.95-10.692,6.22c-2.184,1.438-4.606,2.544-6.696,4.115
			c1.605,0.52,3.207,0.82,4.696,1.772c0.119,0.076,0.205,0.166,0.277,0.262c0.365,0.072,0.706,0.242,1.014,0.508
			c0-0.738,0.139-1.486,0.476-2.236c0.54-1.203,2.302-0.161,1.767,1.033c-1.114,2.482,1.744,6.324,3.187,8.264
			c1.657,2.226,3.516,4.219,5.668,5.848c-0.796-1.151-1.5-2.367-2.058-3.689c-0.333-0.789,0.593-1.385,1.259-1.259
			c3.864,0.733,7.708,1.566,11.571,2.3c3.946,0.75,7.141,0.357,10.885-0.967c0.524-0.186,1.122,0.205,1.259,0.715
			c0.7,2.607,3.066,8.02,6.445,7.889c2.904-0.112,5.553-0.911,8.306-1.751c3.719-1.134,8.788-4.181,12.753-3.038
			c2.004,0.578,1.974,3.482,1.871,5.063c-0.153,2.352-0.943,6.603,2.545,7.471c1.939,0.483,3.923,0.68,5.864,1.152
			c0.822,0.201,1.051,1.482,0.245,1.87c-0.376,0.181-0.759,0.325-1.141,0.478c3.538-0.09,7.061-0.289,10.549-0.6
			c0.224-0.284,0.571-0.481,1.014-0.413c0.455,0.068,0.918,0.125,1.385,0.18c0.169-0.018,0.34-0.031,0.51-0.05
			c0.261-0.028,0.456,0.047,0.612,0.16c5.604,0.501,11.912,0.006,17.723-1.077c-0.167-0.512,0.249-1.078,0.726-1.213
			c0.024-0.008,0.048-0.014,0.072-0.02c0.193-0.117,0.393-0.18,0.587-0.16c6.747-1.84,13.83-2.605,20.029-6.068
			c4.439-2.48,8.402-5.541,12.237-8.81c-1.281,0.573-2.627,1.048-3.963,1.591c-3.836,1.557-6.991,3.629-11.189,4.143
			c-0.82,0.101-1.209-0.928-0.883-1.539C152.098,84.109,158.27,79.096,162.28,72.785z"/>
	</g>
	<g>
		<path d="M98.356,34.795c-0.047-2.098,0.092-4.171,0.149-6.265c0.054-2.017,0.194-4.068,0.197-6.073
			c0.002-1.349,0.463-2.834,0.112-4.164c-0.064-0.242-0.2-0.389-0.425-0.465c-0.025-0.018-0.045-0.039-0.073-0.057
			c-1.295-0.785-4.213,0.221-5.552,0.58c-3.045,0.816-6.074,1.726-9.134,2.48c-2.793,0.688-5.666,1.492-8.384,2.438
			c-2.937,1.021-6.103,1.49-9.088,2.376c-6.122,1.813-12.251,3.417-18.247,5.634c-5.722,2.115-11.271,4.623-17.122,6.327
			c-2.263,0.659-5.516,1.146-7.069,3.139c-0.654,0.841-1.003,1.683-1.09,2.745c-0.054,0.652,0.085,1.281,0.254,1.907
			c0.054,0.701,0.162,1.403,0.255,2.09c0.238,1.729-0.371,3.503-0.395,5.233c-0.007,0.621,0.103,1.201,0.31,1.714
			c-0.068,1.208-0.14,2.407-0.189,3.589c-0.08,1.928-0.077,3.859-0.119,5.787c-0.042,1.896-0.453,3.873-0.265,5.762
			c0.155,1.559,0.412,3.109,0.758,4.637c0.299,1.316,1.07,1.75,2.126,2.434c1.165,0.753,3.026,0.701,4.346,1.004
			c2.313,0.53,4.631,1.021,6.879,1.797c3.574,1.236,7.113,2.571,10.768,3.559c1.643,0.443,4.128,1.128,6.178,0.805
			c1.977,1.135,4.436-0.586,6.131-1.758c2.921-2.017,4.806-4.688,7.263-7.166c5.997-6.051,13.463-10.605,18.424-17.683
			c2.354-3.36,3.844-7.149,7.044-9.846c1.438-1.211,2.43-2.616,3.615-4.033c0.914-1.095,2.41-1.89,2.582-3.462
			C98.778,38.196,98.395,36.473,98.356,34.795z"/>
		<path style="fill:#FFFFF0;" d="M23.958,52.043c-0.04-1.195,0.158-2.375,0.073-3.572c-0.04-0.562-0.171-1.104-0.329-1.643
			c0.048-1.882-0.641-3.803,0.911-5.443c1.046-1.104,2.896-1.471,4.276-1.971c1.472-0.531,3.038-0.803,4.495-1.381
			c2.812-1.116,5.542-2.428,8.359-3.52c3.031-1.175,6.217-2.023,9.362-2.83c6.09-1.563,12.333-2.579,18.279-4.664
			c5.655-1.983,11.217-4.281,17.001-5.873c2.954-0.813,5.939-1.768,8.98-2.186c0.582-0.08,1.193-0.123,1.786-0.102
			c0.012,0.017,0.021,0.035,0.034,0.05c-0.319,0.104-0.666,0.387-0.9,0.557c0.07,0.217,0.025,0.49-0.044,0.672
			c-0.406,1.074-1.831,1.873-2.72,2.484c-1.738,1.195-3.212,2.775-4.699,4.264c-0.354,0.354-0.708,0.707-1.064,1.059
			c0.834-0.641,1.67-1.276,2.521-1.893c0.697-0.508,4.61-3.039,6.854-5.228c-0.069,0.571-0.137,1.099-0.155,1.267
			c-0.082,0.74-0.149,1.477-0.207,2.216c-0.17,0.272-0.364,0.532-0.592,0.765c-0.515,0.525-0.845-0.193-1.355-0.144
			c-2.035,0.194-3.406,3.193-4.267,4.711c-0.84,1.479-1.85,2.82-2.733,4.266c-0.472,0.771-1.525,2.039-2.706,1.045
			c-0.416-0.35-0.858-0.652-1.407-0.746c-1.982-0.338-3.342,2.212-4.242,3.537c-1.943,2.861-2.979,6.088-5.283,8.733
			c-0.982,1.128-1.735-0.466-2.853-0.359c-0.81,0.077-1.22,0.628-1.661,1.237c-0.341,0.475-0.594,1.053-0.904,1.551
			c-0.682,1.095-1.81,1.494-2.97,1.838c-1.004,0.297-1.563,0.751-2.168,1.566c-0.157,0.21-0.303,0.442-0.444,0.682
			c-0.345,0.805-0.469,1.77-0.701,2.584c-0.311,1.09-0.652,2.213-1.302,3.154c-0.43,0.624-1.06,1.061-1.838,0.953
			c-0.638-0.088-0.97-0.58-1.357-1.033c-0.323-0.379-0.814-0.738-1.319-0.682c-1.421,0.541-2.055,2.594-2.808,3.738
			c-1.952,2.963-5.219-3.345-6.993-3.913c-2.186-0.7-3.675,1.2-4.757,2.836c-0.773,1.168-1.64,2.249-2.827,3.017
			c-2.633,1.699-4.814-1.67-5.468-3.717c-0.595-1.863-1.222-5.539-3.321-6.412c-0.703-0.293-1.029-0.188-1.682,0.186
			c-0.837,0.477-1.558,1.022-2.446,1.435C24.411,56.037,23.994,53.103,23.958,52.043z"/>
		<path style="opacity:0.6;fill:#D6A47E;" d="M87.759,27.944c0.355-0.352,0.71-0.706,1.064-1.059
			c1.486-1.488,2.961-3.068,4.699-4.264c0.889-0.611,2.314-1.41,2.72-2.484c0.068-0.182,0.114-0.455,0.044-0.672
			c0.234-0.17,0.581-0.453,0.9-0.557c-0.014-0.015-0.022-0.033-0.034-0.05c-0.593-0.021-1.204,0.022-1.786,0.102
			c-0.99,0.137-1.972,0.342-2.951,0.567c0.272,0.093,0.545,0.185,0.819,0.294c0.538,0.215,0.804,0.744,0.523,1.286
			c-1.838,3.548-5.949,4.825-8.803,7.345c-4.32,3.812-8.912,7.353-13.032,11.388c-3.6,3.526-7.389,8.118-11.699,10.771
			c-2.744,1.688-4.701,0.916-7.33-0.689c-0.434-0.264-0.639-1.018-0.177-1.375c1.847-1.427,4.499-1.745,5.882-3.693
			c-0.137-0.295-0.14-0.658,0.118-0.973c1.313-1.602,0.632-3.72,1.201-5.533c0.572-1.824,1.255-3.74-0.382-5.268
			c-0.981-0.916-2.096-1.649-2.846-2.715c-1.866,0.42-3.731,0.844-5.582,1.318c-3.146,0.807-6.332,1.655-9.362,2.83
			c-1.35,0.523-2.68,1.098-4.009,1.676c-0.03,0.033-0.064,0.063-0.094,0.096c-2.162,2.363-2.988,3.701-1.551,6.773
			c0.269,0.574-0.043,1.332-0.756,1.316c-2.619-0.055-5.092-0.766-7.624-1.268c4.62,3.755,11.84,5.139,17.229,6.85
			c2.531,0.804,9.812,2.008,10.406,5.311c0.104,0.574-0.24,1.078-0.844,1.107c-1.733,0.086-2.126,2.682-4.19,1.781
			c-1.033-0.45-1.763-0.932-2.398-1.91c-1.648-2.543-4.211-0.887-5.177,1.05c-1.675,3.358-4.485,5.14-7.184,1.337
			c-1.334-1.881-4.287-10.409-7.438-6.896c-0.66,0.736-1.914,2-3.056,1.354c-0.482-0.273-0.834-0.717-1.098-1.266
			c0.001,0.072-0.004,0.146-0.001,0.219c0.036,1.06,0.453,3.994,2.409,3.089c0.888-0.412,1.608-0.958,2.446-1.435
			c0.653-0.373,0.979-0.479,1.682-0.186c2.099,0.873,2.727,4.549,3.321,6.412c0.654,2.047,2.835,5.416,5.468,3.717
			c1.187-0.768,2.054-1.849,2.827-3.017c1.082-1.636,2.571-3.536,4.757-2.836c1.774,0.568,5.041,6.876,6.993,3.913
			c0.753-1.145,1.387-3.197,2.808-3.738c0.504-0.057,0.996,0.303,1.319,0.682c0.387,0.453,0.719,0.945,1.357,1.033
			c0.778,0.107,1.408-0.329,1.838-0.953c0.65-0.941,0.992-2.064,1.302-3.154c0.231-0.814,0.355-1.779,0.701-2.584
			c0.141-0.239,0.287-0.472,0.444-0.682c0.606-0.815,1.164-1.27,2.168-1.566c1.16-0.344,2.288-0.743,2.97-1.838
			c0.31-0.498,0.563-1.076,0.904-1.551c0.441-0.609,0.851-1.16,1.661-1.237c1.118-0.106,1.871,1.487,2.853,0.359
			c2.305-2.646,3.34-5.872,5.283-8.733c0.9-1.325,2.26-3.875,4.242-3.537c0.549,0.094,0.991,0.396,1.407,0.746
			c1.181,0.994,2.233-0.273,2.706-1.045c0.884-1.445,1.894-2.787,2.733-4.266c0.861-1.518,2.232-4.517,4.267-4.711
			c0.51-0.049,0.84,0.67,1.355,0.144c0.228-0.232,0.421-0.492,0.592-0.765c0.058-0.739,0.126-1.476,0.207-2.216
			c0.018-0.168,0.086-0.695,0.155-1.267c-2.244,2.188-6.157,4.72-6.854,5.228C89.43,26.668,88.593,27.304,87.759,27.944z"/>
		<path style="fill:#FBCC86;" d="M55.789,68.194c-0.739,3.251-0.639,6.387-0.88,9.683c-0.027,0.371-0.076,0.692-0.142,0.979
			c0.024,0.223,0.044,0.447,0.058,0.67c0.063,1.04-0.067,2.252-1.181,2.66c-0.663,0.24-1.473,0.083-2.129-0.097
			c-1.297-0.356-2.607-0.61-3.925-0.874c-1.748-0.35-3.581-0.748-5.098-1.691c-2.475-0.514-4.917-1.174-7.362-1.832
			c-1.667-0.447-3.351-0.809-5.046-1.131c-1.562-0.295-3.297-0.46-4.627-1.373c-1.34-0.922-0.737-3.04-1.043-4.448
			c-0.36-1.657-0.256-3.305-0.168-4.984c0.172-3.329-0.146-6.685-0.259-10.011c0.655,0.54,1.54,0.781,2.584,0.551
			c1.438-0.318,2.889-3.475,4.566-1.842c1.437,1.399,1.654,3.846,2.001,5.707c0.498,2.678,1.805,4.977,4.639,5.566
			c2.337,0.486,4.912-2.068,6.022-3.824c0.345-0.547,0.68-1.096,1.094-1.596c0.928-1.122,2.039-0.277,2.836,0.447
			c1.059,0.96,1.873,2.06,3.161,2.74c1.727,0.914,3.332-0.163,4.259-1.578c0.16-0.244,1.669-2.804,1.768-2.44
			c0.137,0.509,0.152,1.033,0.382,1.477c-0.016,0.053-0.029,0.108-0.043,0.162c-0.347,0.613-0.435,1.291-0.317,1.967
			C56.752,64.851,56.187,66.448,55.789,68.194z"/>
		<path style="opacity:0.6;fill:#D6A47E;" d="M57.301,60.953c-0.23-0.444-0.245-0.969-0.382-1.477
			c-0.099-0.363-1.608,2.196-1.768,2.44c-0.926,1.415-2.532,2.492-4.259,1.578c-1.288-0.681-2.102-1.78-3.161-2.74
			c-0.798-0.725-1.908-1.569-2.836-0.447c-0.414,0.5-0.749,1.049-1.094,1.596c-1.11,1.756-3.685,4.311-6.022,3.824
			c-1.788-0.373-2.965-1.426-3.718-2.824c-0.298,1.139-1.339,2.002-2.56,2.002h-0.25c-1.447,0-2.654-1.207-2.654-2.654
			s1.207-2.654,2.654-2.654h0.25c0.622,0,1.191,0.232,1.647,0.602c-0.002-0.013-0.006-0.024-0.008-0.037
			c-0.348-1.861-0.564-4.308-2.001-5.707c-1.677-1.633-3.128,1.524-4.566,1.842c-1.044,0.23-1.929-0.011-2.584-0.551
			c0.104,3.051,0.363,6.125,0.275,9.182c3.566,0.266,3.632,5.674,0.196,6.129c0.178,1.393-0.247,3.276,0.999,4.133
			c1.33,0.913,3.065,1.078,4.627,1.373c1.694,0.322,3.379,0.684,5.046,1.131c2.445,0.658,4.887,1.318,7.362,1.832
			c1.517,0.943,3.35,1.342,5.098,1.691c1.318,0.264,2.628,0.518,3.925,0.874c0.656,0.18,1.466,0.337,2.129,0.097
			c1.114-0.408,1.243-1.62,1.181-2.66c-0.001-0.027-0.005-0.054-0.007-0.08c-1.893-0.777-1.809-3.896,0.247-4.471
			c0.1-2.267,0.205-4.495,0.724-6.78c0.397-1.746,0.963-3.344,1.151-5.112c-0.118-0.676-0.03-1.354,0.317-1.967
			C57.272,61.062,57.285,61.006,57.301,60.953z M33.25,72.77c-1.637,0-1.637-2.539,0-2.539S34.887,72.77,33.25,72.77z M41.5,70.935
			c-2.495,0-2.495-3.869,0-3.869S43.995,70.935,41.5,70.935z M54.492,71.463c-0.226,0.821-0.853,1.803-1.664,2.164
			c-0.921,0.41-1.984,0.844-3.007,0.418c-0.917-0.382-1.642-0.772-2.165-1.664c-0.327-0.565-0.492-1.175-0.494-1.828
			c-0.078-0.713,0.203-1.036,0.334-1.63c-0.004,0.027-0.007,0.055-0.011,0.082c0.142-0.679,0.42-1.282,0.954-1.815
			c0.676-0.676,1.604-1.061,2.561-1.061c1.851,0,3.785,1.65,3.622,3.621c-0.008,0.1-0.021,0.186-0.033,0.277
			C54.652,70.504,54.621,70.994,54.492,71.463z"/>
		<path style="fill:#FBCC86;" d="M97.29,40.109c-0.315,1.152-1.128,1.918-2.053,2.626c-2.796,2.14-5.387,4.847-7.618,7.567
			c-0.362,0.443-0.72,0.887-1.079,1.333c-0.327,0.575-0.645,1.15-0.962,1.708c-3.793,6.664-9.724,11.489-15.434,16.468
			c-2.52,2.198-5.103,4.231-7.146,6.909c-1.137,1.49-2.624,2.654-4.095,3.808c-0.745,0.585-1.544,1.091-2.355,1.576
			c-0.145,0.089-0.285,0.187-0.423,0.285c0.074-0.096,0.151-0.185,0.218-0.291c0.708-1.134,0.266-2.617,0.181-3.853
			c-0.163-2.398-0.547-4.703-0.377-7.127c0.153-2.188,0.938-4.271,1.487-6.373c0.081-0.311,0.129-0.62,0.161-0.93
			c0.041-0.045,0.076-0.09,0.095-0.133c0.243-0.533,0.288-1.035,0.317-1.62c0.016-0.321,0.166-0.575,0.361-0.804
			c0.107-0.085,0.204-0.186,0.279-0.297c0.126-0.127,0.252-0.252,0.362-0.385c0.795,0.301,1.834-0.012,2.568-0.765
			c0.819-0.841,0.804-2.453,1.155-3.487c0.7-2.068,1.321-4.191,3.541-4.926c1.229-0.406,2.142-1.019,2.967-2.021
			c0.329-0.398,1.23-2.216,1.945-1.858c0.551,0.276,0.993,0.714,1.625,0.822c1.008,0.172,1.477-0.577,1.988-1.29
			c1.224-1.707,1.914-3.488,2.854-5.345c0.904-1.784,1.916-3.484,3.188-5.03c1.084-1.317,2.226-1.311,3.565-0.324
			c0.262,0.193,0.687,0.38,1.029,0.35c1.132-0.098,1.823-0.574,2.494-1.478c1.209-1.635,2.249-3.416,3.338-5.135
			c0.46-0.726,2.183-4.073,3.302-3.441c0.265,0.149,0.53,0.235,0.79,0.256c0.415-0.322,0.881-0.539,1.453-0.598
			c0.066-0.006,0.157,0.019,0.162,0.104c0.196,3.354-0.333,6.67,0.064,10.022C97.374,37.604,97.607,38.947,97.29,40.109z"/>
		<path style="opacity:0.6;fill:#D6A47E;" d="M32.981,75.717c-1.81-0.904-3.729-1.598-5.405-2.738
			c-1.862-1.267-2.401-4.068-2.65-6.127c-0.369-3.055-0.603-8.233,1.895-10.641c-0.083,0.035-0.167,0.066-0.25,0.084
			c-1.044,0.23-1.929-0.011-2.584-0.551c0.114,3.326,0.432,6.682,0.259,10.011c-0.087,1.68-0.191,3.327,0.168,4.984
			c0.306,1.408-0.297,3.526,1.043,4.448c1.33,0.913,3.065,1.078,4.627,1.373c1.694,0.322,3.379,0.684,5.046,1.131
			c0.52,0.141,1.041,0.274,1.562,0.413C35.5,77.222,34.287,76.369,32.981,75.717z"/>
		<path style="opacity:0.6;fill:#D6A47E;" d="M57.301,60.953c-0.23-0.444-0.245-0.969-0.382-1.477
			c-0.099-0.363-1.608,2.196-1.768,2.44c-0.926,1.415-2.532,2.492-4.259,1.578c-1.288-0.681-2.102-1.78-3.161-2.74
			c-0.798-0.725-1.908-1.569-2.836-0.447c-0.414,0.5-0.749,1.049-1.094,1.596c-1.11,1.756-3.685,4.311-6.022,3.824
			c-2.834-0.59-4.141-2.889-4.639-5.566c-0.348-1.861-0.564-4.308-2.001-5.707c-1.189-1.158-2.264,0.091-3.302,1.029
			c0.425-0.224,0.892-0.4,1.432-0.493c0.445-0.076,0.974,0.111,1.077,0.611c0.61,2.95,1.152,6.194,2.641,8.854
			c1.027,1.835,2.697,4.114,5.213,3.319c1.985-0.626,3.099-2.243,4.548-3.613c0.917-0.867,2.571-2.604,4.029-1.75
			c0.63,0.369,1.002,0.94,1.248,1.61c0.996,2.717,4.146,0.036,5.578-0.364c0.444-0.125,0.971,0.147,1.077,0.611
			c0.397,1.738,0.648,3.494,0.854,5.258c0.073-0.442,0.155-0.886,0.257-1.331c0.397-1.746,0.963-3.344,1.151-5.112
			c-0.118-0.676-0.03-1.354,0.317-1.967C57.272,61.062,57.285,61.006,57.301,60.953z"/>
		<path style="opacity:0.6;fill:#D6A47E;" d="M97.235,36.433c-0.396-3.352,0.132-6.669-0.064-10.022
			c-0.005-0.085-0.096-0.109-0.162-0.104c-0.571,0.059-1.038,0.275-1.453,0.598c-0.26-0.021-0.524-0.107-0.79-0.256
			c-1.12-0.632-2.843,2.715-3.302,3.441c-1.089,1.719-2.129,3.5-3.338,5.135c-0.671,0.904-1.361,1.381-2.494,1.478
			c-0.342,0.03-0.767-0.156-1.029-0.35c-1.339-0.986-2.481-0.993-3.565,0.324c-1.273,1.546-2.284,3.246-3.188,5.03
			c-0.94,1.856-1.629,3.638-2.854,5.345c-0.511,0.713-0.98,1.462-1.988,1.29c-0.632-0.108-1.074-0.546-1.625-0.822
			c-0.715-0.357-1.616,1.46-1.945,1.858c-0.825,1.002-1.739,1.615-2.967,2.021c-2.219,0.734-2.84,2.857-3.541,4.926
			c-0.351,1.034-0.335,2.646-1.155,3.487c-0.733,0.753-1.772,1.065-2.568,0.765c-0.11,0.133-0.236,0.258-0.362,0.385
			c-0.075,0.111-0.171,0.212-0.279,0.297c-0.195,0.229-0.345,0.482-0.361,0.804c-0.029,0.585-0.074,1.087-0.317,1.62
			c-0.02,0.043-0.054,0.088-0.095,0.133c-0.032,0.31-0.081,0.619-0.161,0.93c-0.548,2.102-1.333,4.186-1.487,6.373
			c-0.004,0.06-0.001,0.118-0.005,0.178c0.933-2.533,1.153-5.293,2.437-7.738c0.42-0.8,1.61-0.395,1.631,0.441
			c0.075,3,1.432,9.105,1.28,14.354c0.54-0.509,1.056-1.04,1.508-1.633c2.044-2.678,4.627-4.711,7.146-6.909
			c5.71-4.979,11.64-9.804,15.434-16.468c0.318-0.558,0.636-1.133,0.962-1.708c0.359-0.446,0.717-0.89,1.079-1.333
			c2.231-2.721,4.822-5.428,7.618-7.567c0.925-0.708,1.738-1.474,2.053-2.626C97.607,38.947,97.374,37.604,97.235,36.433z"/>
		<path style="opacity:0.6;fill:#D6A47E;" d="M70.753,50.592c0.226-0.34,0.452-0.678,0.658-1.033c0.325-0.562,1.19-0.576,1.512,0
			c0.223,0.44,0.473,0.865,0.736,1.281c2.576-2.605,3.957-6.998,5.756-10.084c0.964-1.652,2.25-4.15,4.566-3.513
			c0.55,0.151,0.956,0.558,1.419,0.854c2.252,1.451,3.914-1.99,4.564-3.303c0.672-1.358,1.025-3.174,2.014-4.361
			c1.678-2.017,3.332-2.032,5.231-1.574c0.015-0.816,0.011-1.631-0.037-2.449c-0.005-0.085-0.096-0.109-0.162-0.104
			c-0.571,0.059-1.038,0.275-1.453,0.598c-0.26-0.021-0.524-0.107-0.79-0.256c-1.12-0.632-2.843,2.715-3.302,3.441
			c-1.089,1.719-2.129,3.5-3.338,5.135c-0.671,0.904-1.361,1.381-2.494,1.478c-0.342,0.03-0.767-0.156-1.029-0.35
			c-1.339-0.986-2.481-0.993-3.565,0.324c-1.273,1.546-2.284,3.246-3.188,5.03c-0.94,1.856-1.629,3.638-2.854,5.345
			c-0.511,0.713-0.98,1.462-1.988,1.29c-0.632-0.108-1.074-0.546-1.625-0.822c-0.715-0.357-1.616,1.46-1.945,1.858
			c-0.316,0.385-0.654,0.696-1.009,0.977C69.179,50.091,69.97,50.154,70.753,50.592z"/>
		<path style="opacity:0.6;fill:#D6A47E;" d="M66.558,51.846c0.22-0.296,0.455-0.54,0.695-0.759
			c-0.248,0.115-0.505,0.222-0.782,0.313c-2.219,0.734-2.84,2.857-3.541,4.926c-0.351,1.034-0.335,2.646-1.155,3.487
			c-0.733,0.753-1.772,1.065-2.568,0.765c-0.11,0.133-0.236,0.258-0.362,0.385c-0.075,0.111-0.171,0.212-0.279,0.297
			c-0.195,0.229-0.345,0.482-0.361,0.804c-0.003,0.046-0.006,0.088-0.008,0.132C63.208,62.384,64.098,55.154,66.558,51.846z"/>
		<g>
			<path d="M50.564,51.779c-4.326-1.863-8.733-3.598-13.185-5.133c-2.017-0.695-4.037-1.376-6.094-1.945
				c-1.736-0.48-4.592-0.747-5.998-1.951c-0.073-0.063-0.175,0.048-0.121,0.122c0.797,1.096,2.42,1.656,3.658,2.083
				c2.36,0.815,4.691,1.795,7.038,2.659c4.741,1.747,9.489,3.556,14.389,4.815C50.58,52.514,50.924,51.934,50.564,51.779z"/>
			<path d="M59.731,51.266c-1.157,0.807-2.551,2.238-4.061,1.662c-0.049-0.02-0.111,0.045-0.071,0.088
				c0.582,0.631,1.247,0.834,2.059,0.584c0.963-0.298,1.928-1.094,2.527-1.881C60.422,51.41,60.038,51.051,59.731,51.266z"/>
			<path d="M77.73,34.672c-4.968,3.896-9.837,8.128-13.902,12.959c-0.037,0.046-0.019,0.132,0.053,0.104
				c0.653-0.241,1.208-0.883,1.743-1.319c1.339-1.09,2.568-2.334,3.875-3.467c2.908-2.521,5.952-4.963,8.62-7.74
				C78.405,34.912,78.098,34.383,77.73,34.672z"/>
		</g>
		<g>
			<path d="M56.394,28.977c-2.584-1.864-5.982-2.369-9.102-2.166c-2.358,0.153-5.211,0.965-7.25,2.449
				c-0.426,0.234-0.848,0.497-1.266,0.805c-2.446,1.81-4.131,4.638-3.372,7.738c0.75,3.066,4.96,5.334,7.673,6.266
				c3.411,1.172,7.205,1.104,10.514-0.287c3.287-1.379,5.338-3.738,6.262-7.135C60.657,33.691,58.706,30.646,56.394,28.977z"/>
			<path style="fill:#D32315;" d="M53.37,42.523c-5.345,2.277-11.489,0.18-15.571-3.531c-2.878-2.615-1.281-6.146,1.101-8.368
				c0.044,0.003,0.094-0.013,0.142-0.054c3.678-3.172,10.676-3.569,15.02-1.619c2.596,1.163,4.521,3.105,5.055,5.965
				C59.792,38.528,56.224,41.308,53.37,42.523z"/>
			<path style="fill:#8D1816;" d="M59.116,34.916c-0.345-1.843-1.272-3.3-2.579-4.418c-0.089,0.15-0.247,0.27-0.506,0.341
				c-0.99,0.271-2.313,0.063-3.148-0.556c-1.828-1.352-3.273-1.992-5.611-1.898c-1.392,0.057-3.635,0.127-4.677,1.273
				c-2.257,2.484,1.054,3.941,3.055,3.954c2.077,0.014,4.126-0.345,6.167-0.689c1.184-0.2,3.885-0.616,4.054,1.251
				c0.237,2.617-2.926,3.939-5.012,4.562c-2.674,0.798-5.62,0.812-8.231-0.274c-2.075-0.862-4.657-2.397-5.121-4.83
				c-0.086-0.454-0.095-0.883-0.072-1.301c-1.411,2.086-1.857,4.644,0.363,6.661c4.082,3.711,10.226,5.809,15.571,3.531
				C56.224,41.308,59.792,38.528,59.116,34.916z"/>
			<path d="M51.648,31.287c-0.666,0.176-2.343,0.449-4.038,0.488c-0.075-2.303,0.222-4.456,0.802-6.709
				c0.502-1.955,1.625-7.108,3.821-7.774c0.193-0.058,0.306-0.421,0.042-0.46c-0.685-0.104-0.401-0.104-1.081-0.012
				c-0.04,0.006-0.067,0.069-0.018,0.082c0.11,0.048,0.221,0.096,0.331,0.145c-2.104,0.947-2.97,4.516-3.635,6.398
				c-0.821,2.326-1.754,5.749-1.042,8.331c-2.057-0.05-3.91-0.524-3.728-2.036c0.014-0.115-0.142-0.111-0.186-0.031
				c-0.813,1.441,0.473,2.547,1.871,2.902c2.293,0.58,4.837,0.43,6.998-0.555C52.224,31.855,52.229,31.133,51.648,31.287z"/>
		</g>
		<g>
			<path d="M56.741,39.562c-1.479-0.573-2.995-0.438-4.293,0.319c-0.211,0.123-0.566,0.38-0.733,0.65
				c-0.594-0.295-1.206-0.558-1.854-0.752c-1.378-0.41-2.417,0.044-3.293,0.779c-0.683-0.523-1.404-0.94-2.326-1.129
				c-0.851-0.175-1.645,0.035-2.149,0.482c-1.754-1.669-4.124-0.656-5.162,1.144c-1.083,1.879-0.162,4.422,1.948,5.35
				c0.283,0.572,0.706,1.08,1.25,1.443c2.857,1.916,7.291,1.525,10.071-0.104c0.248,0.088,0.491,0.156,0.719,0.203
				c1.94,0.389,5.337-0.492,6.005-2.318c0.035-0.096-0.014-0.163-0.088-0.191c0.767-0.721,1.409-1.557,1.559-2.559
				C58.605,41.477,58.328,40.177,56.741,39.562z"/>
			<path style="fill:#FFFFFF;" d="M55.455,46.309c-1.215,0.664-2.596,0.838-4.16,0.659c-1.255-0.142-3.91-1.397-4.004-2.795
				c-0.003-0.048-0.083-0.027-0.092,0.006c-0.381,1.327,0.85,2.531,2.208,3.224c-2.172,0.597-4.343,0.855-6.63,0.27
				c-1.11-0.284-2.15-0.723-2.818-1.607c-0.943-1.248-0.906-3.329,0.62-4.155c0.036-0.02,0.025-0.077-0.023-0.063
				c-1.758,0.542-2.327,2.158-1.997,3.652c-0.892-0.832-1.312-2.005-1.307-3.176c0.009-2.206,2.678-3.574,4.736-2.312
				c-0.398,0.415-0.566,0.999-0.347,1.659c0.021,0.065,0.123,0.036,0.126-0.021c0.096-1.865,2.213-1.295,3.13-0.807
				c0.293,0.156,0.573,0.336,0.849,0.52c-0.022,0.023-0.043,0.046-0.063,0.068c-0.032,0.035,0,0.098,0.05,0.064
				c0.036-0.024,0.07-0.047,0.106-0.07c0.471,0.322,0.923,0.668,1.369,1.006c1.081,0.82,2.366,1.301,3.756,1.334
				c0.206,0.004,0.423-0.352,0.167-0.432c-1.554-0.483-2.707-1.209-3.894-2.227c-0.121-0.104-0.241-0.204-0.362-0.303
				c0.171-0.084,0.348-0.164,0.541-0.229c1.288-0.441,2.765,0.432,3.811,1.035c1.444,0.832,2.602,1.577,4.359,1.475
				c0.216-0.014,0.449-0.348,0.177-0.458c-1.334-0.544-2.537-1.319-3.802-1.97c0.413-0.391,1.68-0.582,1.871-0.602
				c1.103-0.119,2.748,0.23,3.389,1.132C58.66,43.219,56.75,44.854,55.455,46.309z"/>
		</g>
	</g>
	<g>
		<g>
			<path d="M137.56,41.119c1.158-0.988,1.898-2.617,1.778-4.131c-0.155-1.959,0.002-3.508-0.985-5.297
				c-1.005-1.825-3.416-1.896-5.323-2.244c-0.716-0.233-1.428-0.486-2.081-0.623c-1.989-0.422-3.995-0.769-5.994-1.144
				c-4.46-0.835-9.01-0.869-13.416-2.086c-3.389-0.938-5.997-1.339-8.987,0.851c-1.475,1.08-3.094,1.947-4.554,3.041
				c-1.775,1.332-3.518,2.733-5.355,3.973c-6.646,4.478-12.382,10.436-18.175,15.926c-3.085,2.926-6.07,6.02-9.517,8.529
				c-2.154,1.568-5.249,3.797-4.363,6.836c0.042,0.144,0.119,0.229,0.211,0.271c0.144,0.754,0.5,1.558,1.253,1.464
				c0.248,1.271-0.013,2.679,0.003,3.947c0.022,1.77,0.105,3.535,0.285,5.295c0.35,3.426,0.813,6.83,1.064,10.262
				c0.136,1.863,0.051,4.672,1.451,6.084c0.589,0.594,1.534,0.37,2.217,0.171c0.447-0.13,0.947-0.542,1.342-0.784
				c0.603-0.369,1.448-0.383,2.193-0.5c1.005,0.205,2.008-0.193,3.008-0.533c2.006-0.684,4.003-1.393,5.998-2.105
				c3.912-1.395,7.719-3.055,11.606-4.538c8.295-3.163,16.475-6.394,24.572-10.052c4.212-1.902,8.46-3.732,12.75-5.453
				c1.989-0.798,3.907-1.688,5.853-2.578c0.931-0.428,2.728-0.276,3.315-1.305c0.602-1.052,0.422-2.475,0.572-3.638
				c0.239-1.848,0.176-3.728,0.175-5.586C138.452,50.488,138.001,45.779,137.56,41.119z"/>
			<path style="fill:#FBCC86;" d="M136.663,63.52c-0.024,0.172-3.628,1.387-3.912,1.521c-1.723,0.825-3.477,1.53-5.251,2.237
				c-4.065,1.622-8.083,3.367-12.078,5.153c-3.841,1.719-7.641,3.516-11.577,5.014c-3.636,1.383-7.413,2.67-10.976,4.232
				c-3.416,1.498-7.008,2.551-10.356,4.215c-1.644,0.816-3.593,1.271-5.322,1.897c-1.546,0.56-5.089,2.411-6.743,1.892
				c-0.353-0.111-0.68,0.171-0.761,0.482c-0.287,0.025-0.574,0.07-0.859,0.148c-1.448,0.396-3.412,2.082-3.735-0.911
				c-0.296-2.745-0.358-5.524-0.76-8.259c-0.421-2.865-0.973-5.715-1.224-8.604c-0.155-1.78,0.215-4.472-0.709-6.152
				c0.006-0.002,0.01-0.003,0.016-0.006c0.952-0.414,2.635-0.023,3.669,0.01c0.966,0.029,1.844,0.008,2.755-0.313
				c0.766-0.27,1.771-0.615,2.34-1.238c0.831-0.908,1.206-1.999,2.196-2.799c2.248-1.813,5.831-0.898,8.369-0.748
				c2.177,0.131,4.672-0.127,6.696-0.924c1.375-0.541,1.737-1.775,3.483-1.664c1.309,0.082,2.533,0.65,3.774,1.012
				c1.999,0.58,3.616,0.029,5.288-1.057c1.176-0.764,2.345-1.537,3.55-2.258c1.051-0.629,2.276-0.976,3.268-1.708
				c2.085-1.539,3.668-5.541,6.636-4.758c1.616,0.427,4.166,0.317,5.681-0.392c0.723-0.338,1.421-1.33,1.944-1.851
				c1.136-1.137,2.366-2.125,3.629-3.115c2.369-1.855,4.88-4.441,8.088-2.879c1.074,0.521,2.135,0.412,3.04-0.074
				C136.39,48.912,137.672,56.259,136.663,63.52z"/>
			<path style="opacity:0.6;fill:#D6A47E;" d="M136.822,41.625c-0.904,0.486-1.965,0.596-3.04,0.074
				c-3.208-1.563-5.72,1.023-8.088,2.879c-1.263,0.99-2.493,1.979-3.629,3.115c-0.522,0.521-1.221,1.514-1.944,1.851
				c-1.515,0.709-4.065,0.818-5.681,0.392c-2.968-0.783-4.551,3.219-6.636,4.758c-0.992,0.732-2.217,1.079-3.268,1.708
				c-1.204,0.721-2.373,1.494-3.55,2.258c-1.672,1.086-3.289,1.637-5.288,1.057c-1.241-0.361-2.465-0.93-3.774-1.012
				c-1.747-0.111-2.108,1.123-3.483,1.664c-2.024,0.797-4.519,1.055-6.696,0.924c-2.537-0.15-6.121-1.065-8.369,0.748
				c-0.991,0.8-1.365,1.891-2.196,2.799c-0.569,0.623-1.574,0.969-2.34,1.238c-0.911,0.32-1.789,0.342-2.755,0.313
				c-1.034-0.033-2.717-0.424-3.669-0.01c-0.006,0.003-0.01,0.004-0.016,0.006c0.194,0.353,0.328,0.753,0.425,1.178
				c1.928,0.445,3.941,0.322,5.926,0.311c0.495-0.004,0.756,0.307,0.818,0.665c1.323-1.088,2.481-2.335,3.99-3.265
				c4.174-2.572,8.369,1.04,12.212-2.663c1.178-1.135,4.146-1.612,4.709,0.437c0.305,1.109-0.623,2.453-1.127,3.335
				c-1.945,3.401-0.192,5.978-0.322,9.446c-0.143,3.808-2.247,6.437-5.146,8.746c-0.847,0.676-1.738,1.296-2.661,1.873
				c0.444-0.169,0.877-0.352,1.292-0.557c3.348-1.664,6.94-2.717,10.356-4.215c3.563-1.563,7.34-2.85,10.976-4.232
				c3.936-1.498,7.735-3.295,11.577-5.014c3.996-1.786,8.013-3.531,12.078-5.153c1.774-0.707,3.528-1.412,5.251-2.237
				c0.283-0.135,3.888-1.35,3.912-1.521C137.672,56.259,136.39,48.912,136.822,41.625z"/>
			<path style="fill:#FFFFF0;" d="M137.103,40.336c-0.009,0.006-0.018,0.01-0.028,0.016c-0.376,0.205-0.801,0.363-1.246,0.498
				c-0.866,0.263-1.613-0.215-2.371-0.572c-1.382-0.652-3.514,0.285-4.766,0.868c-0.885,0.413-1.625,1.162-2.314,1.833
				c-0.854,0.833-1.921,1.493-2.862,2.225c-0.897,0.697-1.748,1.445-2.66,2.125c-1.19,0.889-2.068,0.889-3.513,0.996
				c-1.589,0.119-3.315-0.315-4.83,0.246c-1.661,0.615-2.783,2.918-3.849,4.178c-1.414,1.67-3.65,2.342-5.447,3.509
				c-2.41,1.567-4.435,3.206-7.425,2.003c-1.444-0.58-3.365-1.28-4.95-0.963c-0.759,0.151-1.379,0.627-1.963,1.1
				c-1.429,1.154-2.772,1.371-4.519,1.566c-4.01,0.447-8.541-1.211-12.049,1.547c-0.542,0.426-0.903,1.012-1.235,1.603
				c-0.687,1.227-2.186,1.935-3.562,2.153c-1.128,0.18-2.33,0.133-3.472,0.172c-1.153,0.04-2.29,0.154-2.316-1.293
				c-0.002-0.133-0.041-0.23-0.1-0.297c0.187-2.115,1.638-3.463,3.247-4.803c1.513-1.26,3.018-2.531,4.506-3.822
				c2.826-2.448,5.444-5.121,8.271-7.568c5.506-4.767,10.797-10.048,16.924-14.023c1.401-0.909,2.732-2.117,4.077-3.126
				c1.464-1.098,3.106-1.915,4.553-3.041c3.472-2.701,7.63-0.47,11.435,0.249c3.817,0.721,7.716,0.793,11.566,1.236
				c1.784,0.207,3.565,0.424,5.342,0.678c0.428,0.06,0.881,0.166,1.341,0.266c1.582,0.741,3.407,1.157,4.487,2.566
				c1.191,1.554,1.135,3.91,1.069,5.768C138.407,39.285,137.863,39.912,137.103,40.336z"/>
			<path style="opacity:0.6;fill:#D6A47E;" d="M137.376,32.459c-1.08-1.409-2.905-1.825-4.487-2.566
				c-0.46-0.1-0.913-0.205-1.341-0.266c-1.777-0.254-3.559-0.471-5.342-0.678c-3.851-0.443-7.749-0.516-11.566-1.236
				c-3.805-0.719-7.963-2.95-11.435-0.249c-1.447,1.126-3.089,1.943-4.553,3.041c-1.344,1.009-2.676,2.217-4.077,3.126
				c-2.237,1.451-4.361,3.08-6.427,4.791c2.783-1.834,6.66-3.9,8.435-2.147c0.463,0.458,0.722,0.897,1.002,1.491
				c0.994,2.112,2.983,2.82,5.277,2.845c3.51,0.038,6.934-0.621,10.296-1.592c4.358-1.258,13.347-2.055,13.467-7.854
				c0.013-0.601,0.546-0.95,1.108-0.844c2.84,0.537,7.805,0.304,8.867,3.516c0.802,2.424-0.205,3.734-2.361,4.848
				c-3.549,1.833-7.54,2.033-10.9,4.404c-3.271,2.307-5.155,4.547-9.338,4.834c-3.748,0.256-6.699,0.447-9.652,3.07
				c-1.309,1.162-2.559,2.208-4.073,3.096c-3.05,1.787-6.091-1.537-9.492,0.493c-3.193,1.907-6.034,3.665-9.803,4.157
				c-4.397,0.575-7.794,0.951-11.539,3.516c-0.254,0.174-0.627,0.148-0.884,0c-0.092-0.024-0.185-0.047-0.278-0.071
				c-0.887,1.411-2.725,2.698-4.319,2.26c-1.174-0.323-1.79-0.975-2.065-1.78c-0.131,0.37-0.231,0.758-0.269,1.184
				c0.059,0.066,0.098,0.164,0.1,0.297c0.027,1.447,1.163,1.333,2.316,1.293c1.142-0.039,2.344,0.008,3.472-0.172
				c1.376-0.219,2.875-0.926,3.562-2.153c0.331-0.591,0.693-1.177,1.235-1.603c3.508-2.758,8.039-1.1,12.049-1.547
				c1.746-0.195,3.09-0.412,4.519-1.566c0.584-0.473,1.204-0.948,1.963-1.1c1.585-0.317,3.506,0.383,4.95,0.963
				c2.991,1.203,5.016-0.436,7.425-2.003c1.796-1.167,4.033-1.839,5.447-3.509c1.066-1.26,2.188-3.563,3.849-4.178
				c1.515-0.562,3.241-0.127,4.83-0.246c1.445-0.107,2.324-0.107,3.513-0.996c0.912-0.68,1.763-1.428,2.66-2.125
				c0.941-0.731,2.009-1.392,2.862-2.225c0.689-0.671,1.429-1.42,2.314-1.833c1.252-0.583,3.384-1.521,4.766-0.868
				c0.758,0.357,1.505,0.835,2.371,0.572c0.444-0.135,0.87-0.293,1.246-0.498c0.009-0.006,0.019-0.01,0.028-0.016
				c0.76-0.424,1.304-1.051,1.342-2.109C138.51,36.369,138.567,34.013,137.376,32.459z"/>
			<path d="M128.595,37.338c-9.788,3.885-19.816,7.113-29.604,10.996c-5.034,1.998-10.151,3.779-15.214,5.703
				c-2.396,0.91-4.802,1.783-7.218,2.635c-2.592,0.914-5.144,2.4-7.862,2.899c-0.061,0.011-0.071,0.112,0.002,0.104
				c2.005-0.189,4.023-0.994,5.908-1.676c2.623-0.947,5.3-1.752,7.938-2.658c5.359-1.842,10.736-3.67,16.017-5.726
				c4.867-1.894,9.672-3.94,14.528-5.861c5.186-2.05,10.472-3.916,15.581-6.151C128.833,37.532,128.786,37.262,128.595,37.338z"/>
		</g>
		<g>
			<g>
				<path d="M120.248,17.107c-2.478-1.428-5.559-1.565-8.326-1.099c-2.092,0.354-4.565,1.341-6.249,2.854
					c-0.358,0.247-0.711,0.521-1.056,0.835c-2.018,1.842-3.263,4.52-2.301,7.219c0.951,2.67,4.919,4.309,7.427,4.891
					c3.153,0.733,6.535,0.323,9.361-1.221c2.809-1.535,4.423-3.83,4.937-6.947C124.489,20.926,122.467,18.385,120.248,17.107z"/>
				<path style="fill:#D32315;" d="M118.793,29.482c-4.562,2.524-10.242,1.215-14.228-1.725c-2.81-2.07-1.708-5.37,0.216-7.572
					c0.039-0.003,0.082-0.02,0.121-0.063c2.993-3.169,9.205-4.166,13.263-2.825c2.424,0.802,4.321,2.358,5.061,4.864
					C124.16,25.324,121.23,28.134,118.793,29.482z"/>
				<path style="fill:#8D1816;" d="M123.225,22.162c-0.74-2.506-2.637-4.063-5.061-4.864c-0.537-0.177-1.112-0.312-1.712-0.407
					c0.686,0.277,1.346,0.617,1.967,1.012c0.271,0.172,0.335,0.549,0.101,0.785c-0.706,0.711-2.526,0.523-3.414,0.576
					c-2.068,0.123-4.262,0.14-6.265,0.719c-0.761,0.221-2.755,1.143-1.102,2.014c1.091,0.576,2.436,0.537,3.632,0.4
					c2.391-0.274,5.079-0.816,7.209-1.994c0.19-0.105,0.369-0.071,0.507,0.024c0.323-0.183,0.717,0.014,0.746,0.408
					c0.296,4.001-5.43,4.535-9.874,4.116c-1.094,0.062-2.146-0.001-3.083-0.223c-2.084-0.492-2.959-1.718-3.081-3.187
					c-1.216,2.055-1.508,4.539,0.769,6.217c3.986,2.94,9.666,4.248,14.228,1.725C121.23,28.134,124.16,25.324,123.225,22.162z"/>
				<path d="M116.224,19.605c-0.578,0.219-2.051,0.617-3.561,0.808c-0.278-2.05-0.211-3.999,0.1-6.064
					c0.27-1.792,0.798-6.497,2.698-7.292c0.168-0.07,0.235-0.404-0.005-0.416c-0.621-0.029-0.368-0.055-0.966,0.09
					c-0.035,0.009-0.054,0.066-0.008,0.074c0.103,0.033,0.205,0.066,0.308,0.099c-1.792,1.04-2.238,4.305-2.658,6.048
					c-0.52,2.152-1.038,5.295-0.166,7.535c-1.841,0.145-3.539-0.109-3.517-1.476c0.002-0.104-0.136-0.086-0.168-0.012
					c-0.593,1.363,0.656,2.232,1.938,2.42c2.101,0.309,4.358-0.06,6.198-1.138C116.79,20.063,116.728,19.415,116.224,19.605z"/>
			</g>
		</g>
		<g>
			<path d="M123.85,26.78c-1.86-0.722-3.767-0.551-5.398,0.401c-0.266,0.155-0.712,0.478-0.922,0.817
				c-0.748-0.37-1.517-0.7-2.332-0.944c-1.732-0.517-3.039,0.055-4.141,0.98c-0.858-0.658-1.766-1.182-2.925-1.42
				c-1.07-0.221-2.069,0.044-2.702,0.607c-2.206-2.1-5.186-0.826-6.492,1.438c-1.363,2.363-0.204,5.56,2.45,6.728
				c0.356,0.717,0.888,1.357,1.572,1.815c3.593,2.407,9.169,1.917,12.665-0.132c0.312,0.11,0.617,0.197,0.904,0.256
				c2.439,0.488,6.712-0.619,7.553-2.916c0.043-0.119-0.018-0.205-0.11-0.24c0.963-0.906,1.771-1.958,1.959-3.217
				C126.194,29.187,125.845,27.555,123.85,26.78z"/>
			<path style="fill:#FFFFFF;" d="M122.233,35.266c-1.529,0.834-3.264,1.053-5.231,0.828c-1.579-0.179-4.917-1.758-5.036-3.515
				c-0.004-0.06-0.104-0.034-0.116,0.007c-0.478,1.67,1.069,3.184,2.777,4.055c-2.731,0.75-5.461,1.074-8.338,0.339
				c-1.396-0.357-2.703-0.909-3.544-2.022c-1.186-1.568-1.14-4.186,0.78-5.225c0.045-0.025,0.031-0.098-0.03-0.079
				c-2.211,0.681-2.926,2.712-2.511,4.592c-1.121-1.046-1.649-2.52-1.643-3.991c0.012-2.775,3.368-4.498,5.956-2.909
				c-0.5,0.523-0.712,1.255-0.437,2.087c0.027,0.082,0.154,0.045,0.159-0.028c0.122-2.345,2.783-1.627,3.937-1.013
				c0.368,0.197,0.72,0.421,1.067,0.652c-0.026,0.029-0.053,0.059-0.08,0.088c-0.04,0.043,0,0.121,0.063,0.078
				c0.045-0.029,0.087-0.059,0.131-0.087c0.592,0.404,1.162,0.84,1.723,1.265c1.359,1.031,2.974,1.635,4.723,1.677
				c0.259,0.006,0.532-0.441,0.209-0.542c-1.955-0.608-3.404-1.519-4.896-2.799c-0.152-0.131-0.304-0.258-0.456-0.383
				c0.215-0.105,0.438-0.205,0.681-0.287c1.619-0.555,3.478,0.543,4.793,1.303c1.815,1.046,3.272,1.982,5.481,1.854
				c0.271-0.016,0.564-0.436,0.222-0.575c-1.678-0.685-3.189-1.661-4.781-2.478c0.52-0.492,2.114-0.73,2.353-0.756
				c1.386-0.149,3.457,0.289,4.261,1.424C126.264,31.377,123.861,33.436,122.233,35.266z"/>
			<path style="fill:#DDDAD7;" d="M103.17,29.789c0.064-0.275,0.163-0.547,0.286-0.751c0.321-0.528,1.377-1.198,0.363-0.899
				c-1.287,0.378-1.874,1.168-2.942,1.793c-0.12,0.07-0.244,0.068-0.377,0.068c-0.252,0-0.526-0.229-0.5-0.5
				c0.064-0.654,0.224-1.224,0.476-1.733c-0.685,0.622-1.129,1.483-1.134,2.487c-0.006,1.471,0.522,2.945,1.643,3.991
				C100.592,32.467,101.228,30.565,103.17,29.789z"/>
			<path style="fill:#DDDAD7;" d="M124.451,28.824c-0.059-0.084-0.138-0.156-0.211-0.232c0.099,0.384,0.149,0.773,0.134,1.158
				c-0.02,0.523-0.646,0.646-0.932,0.252c-1.042-1.438-3.094-2.156-4.811-1.77c-0.257,0.058-0.448-0.072-0.547-0.253
				c-0.097,0.055-0.182,0.113-0.248,0.177c0.378,0.193,0.751,0.397,1.123,0.604c0.131-0.018,0.271,0.017,0.393,0.137
				c0.095,0.094,0.202,0.162,0.301,0.248c0.964,0.537,1.932,1.068,2.964,1.489c0.183,0.075,0.182,0.229,0.102,0.358
				c0.219,0.107,0.438,0.213,0.657,0.326c0.445,0.229,0.234,0.943-0.252,0.932c-3.194-0.076-8.701-1.217-10.614-4.281
				c-0.13,0.023-0.261,0.041-0.389,0.084c-0.242,0.082-0.465,0.182-0.681,0.287c0.152,0.125,0.304,0.252,0.456,0.383
				c1.491,1.279,2.941,2.19,4.896,2.799c0.31,0.096,0.071,0.5-0.177,0.53c0.955,0.48,1.9,0.978,2.761,1.642
				c0.372,0.286,0.289,0.928-0.252,0.932c-3.956,0.032-7.015-2.652-10.146-4.75c-0.272,1.154,0.747,2.283,1.327,3.123
				c0.347,0.502-0.377,0.939-0.785,0.605c-0.99-0.811-1.823-1.662-2.466-2.723c-0.781,1.399,0.491,3.331,1.126,4.492
				c0.251,0.459-0.24,0.898-0.684,0.684c-2.255-1.09-4.35-3.031-4.401-5.684c-0.002-0.108,0.007-0.226,0.025-0.348
				c-1.496,1.172-1.467,3.488-0.376,4.932c0.841,1.113,2.148,1.665,3.544,2.022c2.876,0.735,5.607,0.411,8.338-0.339
				c-1.708-0.871-3.255-2.385-2.777-4.055c0.012-0.041,0.112-0.066,0.116-0.007c0.118,1.757,3.457,3.336,5.036,3.515
				c1.968,0.225,3.703,0.006,5.231-0.828C123.861,33.436,126.264,31.377,124.451,28.824z"/>
		</g>
	</g>
	<g>
		<path d="M165.222,52.188c-0.262-2.083-0.335-4.159-0.493-6.248c-0.152-2.012-0.223-4.067-0.425-6.062
			c-0.136-1.342,0.171-2.866-0.315-4.153c-0.088-0.233-0.239-0.367-0.471-0.419c-0.026-0.017-0.048-0.035-0.078-0.049
			c-1.369-0.649-4.169,0.65-5.464,1.145c-2.946,1.125-5.865,2.34-8.833,3.403c-2.707,0.969-5.484,2.063-8.09,3.281
			c-2.817,1.314-5.918,2.108-8.797,3.293c-5.904,2.43-11.838,4.652-17.576,7.471c-5.475,2.689-10.739,5.752-16.385,8.047
			c-2.183,0.887-5.37,1.702-6.71,3.846c-0.564,0.902-0.825,1.775-0.804,2.84c0.014,0.654,0.217,1.268,0.448,1.873
			c0.125,0.691,0.304,1.379,0.468,2.053c0.413,1.695-0.011,3.521,0.143,5.246c0.055,0.617,0.224,1.186,0.482,1.674
			c0.056,1.207,0.107,2.408,0.179,3.59c0.118,1.924,0.319,3.846,0.474,5.768c0.152,1.891-0.054,3.898,0.326,5.76
			c0.313,1.533,0.728,3.049,1.229,4.533c0.432,1.279,1.243,1.632,2.363,2.203c1.236,0.631,3.083,0.389,4.427,0.555
			c2.354,0.291,4.711,0.542,7.026,1.084c3.682,0.863,7.339,1.83,11.076,2.438c1.679,0.273,4.221,0.7,6.228,0.17
			c2.082,0.926,4.352-1.037,5.92-2.377c2.698-2.307,4.301-5.154,6.491-7.871c5.348-6.633,12.308-11.928,16.518-19.475
			c1.998-3.583,3.093-7.506,6-10.515c1.307-1.351,2.15-2.851,3.184-4.382c0.797-1.184,2.205-2.127,2.214-3.708
			C165.989,55.527,165.432,53.852,165.222,52.188z"/>
		<path style="fill:#FFFFF0;" d="M92.979,76.955c-0.162-1.186-0.086-2.379-0.293-3.561c-0.097-0.555-0.284-1.082-0.496-1.602
			c-0.145-1.876-1.026-3.717,0.35-5.506c0.927-1.207,2.73-1.76,4.052-2.398c1.41-0.68,2.94-1.109,4.33-1.834
			c2.683-1.398,5.264-2.982,7.955-4.355c2.895-1.479,5.977-2.648,9.024-3.773c5.897-2.178,12.004-3.828,17.706-6.51
			c5.422-2.553,10.72-5.406,16.311-7.582c2.856-1.109,5.726-2.364,8.709-3.092c0.57-0.139,1.173-0.244,1.766-0.285
			c0.013,0.016,0.023,0.031,0.039,0.047c-0.307,0.135-0.622,0.451-0.838,0.645c0.091,0.209,0.075,0.486,0.025,0.674
			c-0.294,1.109-1.629,2.05-2.451,2.748c-1.608,1.367-2.912,3.092-4.238,4.723c-0.316,0.389-0.633,0.777-0.95,1.163
			c0.764-0.722,1.531-1.441,2.313-2.142c0.642-0.576,4.276-3.495,6.283-5.9c-0.01,0.574-0.023,1.105-0.025,1.275
			c-0.006,0.744,0.002,1.484,0.02,2.225c-0.142,0.289-0.308,0.566-0.51,0.821c-0.458,0.575-0.86-0.104-1.363-0.003
			c-2.005,0.4-3.061,3.523-3.763,5.121c-0.684,1.557-1.55,2.994-2.282,4.521c-0.391,0.816-1.309,2.186-2.585,1.318
			c-0.449-0.306-0.92-0.563-1.476-0.6c-2.006-0.132-3.098,2.543-3.857,3.953c-1.641,3.045-2.34,6.361-4.362,9.228
			c-0.862,1.222-1.773-0.286-2.875-0.066c-0.798,0.16-1.149,0.749-1.525,1.402c-0.292,0.506-0.483,1.108-0.741,1.634
			c-0.566,1.159-1.647,1.671-2.766,2.132c-0.968,0.398-1.478,0.907-1.997,1.779c-0.135,0.226-0.257,0.472-0.372,0.725
			c-0.261,0.836-0.286,1.807-0.433,2.643c-0.197,1.115-0.421,2.268-0.972,3.271c-0.364,0.664-0.946,1.162-1.731,1.135
			c-0.644-0.021-1.024-0.477-1.455-0.889c-0.361-0.344-0.887-0.651-1.383-0.544c-1.357,0.685-1.778,2.792-2.41,4.007
			c-1.639,3.146-5.534-2.793-7.357-3.178c-2.246-0.473-3.532,1.57-4.441,3.309c-0.65,1.24-1.402,2.404-2.504,3.289
			c-2.445,1.96-4.96-1.168-5.819-3.137c-0.783-1.793-1.783-5.385-3.96-6.039c-0.729-0.219-1.043-0.082-1.654,0.355
			c-0.784,0.561-1.444,1.178-2.286,1.678C93.837,80.883,93.122,78.006,92.979,76.955z"/>
		<path style="opacity:0.6;fill:#D6A47E;" d="M162.576,38.414c-2.007,2.405-5.642,5.324-6.283,5.9
			c-0.782,0.701-1.55,1.42-2.313,2.142c0.317-0.386,0.634-0.775,0.95-1.163c1.326-1.631,2.63-3.355,4.238-4.723
			c0.821-0.698,2.157-1.639,2.451-2.748c0.05-0.188,0.065-0.465-0.025-0.674c0.216-0.193,0.531-0.51,0.838-0.645
			c-0.016-0.016-0.026-0.031-0.039-0.047c-0.592,0.041-1.196,0.146-1.766,0.285c-1.402,0.342-2.778,0.805-4.14,1.311
			c0.612,0.003,1.228,0.025,1.847,0.072c0.765,0.058,1.153,0.906,0.619,1.494c-3.158,3.471-7.234,5.922-10.255,9.535
			c-3.299,3.947-6.035,8.338-9.597,12.07c-4.646,4.869-9.523,11.469-16.934,10.484c-0.642-0.086-1.305-0.956-0.619-1.494
			c1.737-1.364,4.132-1.301,5.811-2.699c-0.053-0.191-0.054-0.402,0.053-0.624c1.074-2.228,2.417-4.332,3.456-6.565
			c0.719-1.547,0.006-2.869-0.004-4.447c-0.006-1.146,0.165-2.178,0.519-3.268c0.538-1.655-0.574-2.229-1.898-2.691
			c-3.838,1.396-7.754,2.592-11.584,4.006c-3.047,1.125-6.129,2.294-9.024,3.773c-1.71,0.873-3.377,1.828-5.052,2.77
			c0.423,0.451,0.56,1.17,0.176,2.136c-0.51,1.283-0.923,2.229-0.817,3.644c0.046,0.611-0.088,1.353-0.823,1.463
			c-1.181,0.177-2.609-0.566-3.783-0.688c-1.6-0.163-3.161-0.34-4.52-1.268c-0.18-0.123-0.297-0.287-0.365-0.469
			c-0.445,0.282-0.85,0.604-1.154,1c-1.376,1.789-0.494,3.63-0.35,5.506c0.212,0.52,0.399,1.047,0.496,1.602
			c0.207,1.182,0.132,2.375,0.293,3.561c0.143,1.051,0.858,3.928,2.712,2.826c0.842-0.5,1.502-1.117,2.286-1.678
			c0.611-0.438,0.925-0.574,1.654-0.355c2.177,0.654,3.177,4.246,3.96,6.039c0.859,1.969,3.374,5.097,5.819,3.137
			c1.103-0.885,1.854-2.049,2.504-3.289c0.909-1.738,2.195-3.781,4.441-3.309c1.823,0.385,5.719,6.324,7.357,3.178
			c0.632-1.215,1.053-3.322,2.41-4.007c0.497-0.107,1.022,0.2,1.383,0.544c0.431,0.412,0.811,0.867,1.455,0.889
			c0.786,0.027,1.367-0.471,1.731-1.135c0.551-1.004,0.775-2.156,0.972-3.271c0.147-0.836,0.172-1.807,0.433-2.643
			c0.116-0.253,0.238-0.498,0.372-0.725c0.519-0.872,1.028-1.381,1.997-1.779c1.119-0.461,2.2-0.973,2.766-2.132
			c0.258-0.526,0.45-1.128,0.741-1.634c0.376-0.653,0.727-1.242,1.525-1.402c1.102-0.22,2.013,1.288,2.875,0.066
			c2.022-2.867,2.721-6.184,4.362-9.228c0.76-1.41,1.852-4.085,3.857-3.953c0.556,0.037,1.027,0.294,1.476,0.6
			c1.276,0.867,2.193-0.502,2.585-1.318c0.731-1.527,1.598-2.965,2.282-4.521c0.702-1.599,1.758-4.721,3.763-5.121
			c0.503-0.101,0.905,0.578,1.363,0.003c0.203-0.255,0.369-0.532,0.51-0.821c-0.018-0.74-0.026-1.48-0.02-2.225
			C162.553,39.52,162.566,38.988,162.576,38.414z M129.844,74.9c-0.283,1.162-0.384,2.337-0.666,3.5
			c-0.138,0.568-0.801,0.78-1.286,0.522c-2.06-1.095-3.597-1.122-4.615,1.019c-0.238,0.502-0.674,1.221-1.337,1.194
			c-1.041-0.04-2.047-0.435-2.81-1.194c-1.038-1.035-2.599-3.277-4.561-1.828c-1.273,0.939-2.107,2.171-3.034,3.421
			c-1.525,2.058-3.49,3.942-5.977,2.368c-3.932-2.49-2.774-11.521-9.45-6.813c-0.299,0.211-0.825,0.143-1.061-0.137
			c-1.286-1.523-2.978-5.524-1.901-7.653c-0.934-0.279-0.47-1.802,0.586-1.643c5.021,0.748,9.919,3.188,14.918,4.318
			c6.617,1.496,13.331,2.852,20.116,1.848C129.419,73.727,130.016,74.195,129.844,74.9z"/>
		<path style="fill:#FBCC86;" d="M126.294,89.766c-0.404,3.311,0.018,6.418,0.115,9.722c0.01,0.372-0.005,0.696-0.042,0.987
			c0.047,0.221,0.091,0.441,0.126,0.662c0.168,1.027,0.165,2.246-0.902,2.766c-0.635,0.308-1.457,0.234-2.127,0.122
			c-1.327-0.222-2.656-0.341-3.994-0.468c-1.773-0.17-3.638-0.377-5.244-1.162c-2.514-0.256-5.011-0.664-7.51-1.068
			c-1.704-0.275-3.417-0.462-5.135-0.608c-1.583-0.135-3.328-0.12-4.743-0.894c-1.428-0.779-1.045-2.947-1.494-4.317
			c-0.527-1.612-0.592-3.261-0.677-4.94c-0.17-3.33-0.828-6.635-1.282-9.934c0.708,0.472,1.612,0.621,2.627,0.285
			c1.398-0.463,2.519-3.752,4.354-2.3c1.573,1.246,2.04,3.657,2.574,5.473c0.77,2.612,2.306,4.766,5.185,5.063
			c2.375,0.245,4.675-2.559,5.6-4.42c0.288-0.579,0.565-1.16,0.925-1.699c0.808-1.212,1.999-0.485,2.868,0.153
			c1.151,0.848,2.074,1.858,3.424,2.404c1.811,0.731,3.299-0.504,4.075-2.006c0.135-0.26,1.374-2.961,1.509-2.609
			c0.188,0.492,0.258,1.012,0.531,1.432c-0.009,0.055-0.017,0.109-0.026,0.165c-0.284,0.646-0.301,1.329-0.115,1.989
			C126.909,86.341,126.511,87.988,126.294,89.766z"/>
		<path style="opacity:0.6;fill:#D6A47E;" d="M127.057,82.408c-0.273-0.42-0.343-0.939-0.531-1.432
			c-0.135-0.352-1.374,2.35-1.509,2.609c-0.776,1.502-2.264,2.736-4.075,2.006c-1.35-0.546-2.273-1.557-3.424-2.404
			c-0.164-0.12-0.342-0.24-0.525-0.354c0.004,0.056,0.017,0.11,0.017,0.167c0,1.232-1.028,2.26-2.26,2.26h-0.25
			c-0.335,0-0.651-0.081-0.939-0.217c-1.012,1.846-3.189,4.342-5.436,4.11c-2.337-0.241-3.779-1.714-4.655-3.655
			c-0.506,0.121-1.038,0.13-1.544-0.01c-0.774-0.213-1.446-0.73-1.853-1.424c-0.456-0.779-0.449-1.529-0.312-2.389
			c0.128-0.802,0.715-1.611,1.448-2.131c-0.243-0.347-0.514-0.666-0.843-0.927c-1.835-1.452-2.956,1.837-4.354,2.3
			c-1.015,0.336-1.919,0.187-2.627-0.285c0.367,2.666,0.854,5.335,1.123,8.018h0.742c1.69,0,3.1,1.41,3.1,3.1s-1.41,3.1-3.1,3.1
			h-0.076c0.056,0.219,0.1,0.439,0.171,0.657c0.448,1.37,0.066,3.538,1.494,4.317c0.931,0.508,2.004,0.675,3.081,0.769V100.5
			c0-0.998,0.833-1.83,1.831-1.83s1.831,0.832,1.831,1.83v0.417c1.048,0.112,2.094,0.241,3.136,0.409
			c2.499,0.404,4.996,0.813,7.51,1.068c1.606,0.785,3.47,0.992,5.244,1.162c1.338,0.127,2.667,0.246,3.994,0.468
			c0.67,0.112,1.493,0.186,2.127-0.122c1.067-0.52,1.07-1.738,0.902-2.766c-0.035-0.221-0.079-0.441-0.126-0.662
			c0.037-0.291,0.052-0.615,0.042-0.987c-0.038-1.284-0.124-2.538-0.192-3.786c-0.077,0.024-0.152,0.053-0.231,0.064
			c-0.986,0.146-1.963-0.23-2.251-1.279c-0.24-0.872,0.29-2.105,1.279-2.252c0.038-0.006,0.057-0.006,0.077-0.007
			c0.214-0.103,0.437-0.208,0.673-0.243c0.126-0.018,0.251-0.027,0.375-0.029c0.021-0.723,0.065-1.451,0.155-2.189
			c0.217-1.777,0.615-3.425,0.622-5.203c-0.187-0.66-0.169-1.344,0.115-1.989C127.04,82.518,127.048,82.463,127.057,82.408z
			 M110.942,95.941c-0.408,0.348-0.812,0.602-1.252,0.879c0.098-0.076,0.195-0.151,0.293-0.226c-1.27,0.945-2.974,1.049-4.174-0.152
			c-1.123-1.123-1.287-3.287,0-4.383c0.408-0.348,0.812-0.602,1.252-0.879c-0.098,0.076-0.195,0.151-0.293,0.227
			c1.27-0.945,2.974-1.049,4.174,0.152C112.064,92.682,112.229,94.846,110.942,95.941z M117.277,89.031
			c-0.048-0.572,0.286-1.185,0.522-1.672c0.364-0.75,1.194-1.115,2.003-1.097c0.462-0.039,0.936,0.05,1.338,0.286
			c1.096,0.642,1.386,2.002,0.811,3.092c-0.58,1.098-1.678,1.979-2.998,1.615C117.899,90.967,117.365,90.067,117.277,89.031z
			 M122.544,100.545c-0.639,0.639-1.652,0.689-2.366,0.18c-0.724-0.246-1.259-0.92-1.259-1.725c0-0.99,0.833-1.842,1.831-1.83
			c0.732,0.008,1.28,0.277,1.794,0.785C123.253,98.657,123.247,99.842,122.544,100.545z"/>
		<path style="fill:#FBCC86;" d="M164.704,57.583c-0.195,1.178-0.926,2.022-1.773,2.821c-2.563,2.414-4.863,5.373-6.804,8.308
			c-0.316,0.478-0.626,0.956-0.937,1.437c-0.266,0.605-0.524,1.21-0.782,1.797c-3.092,7.018-8.498,12.424-13.668,17.961
			c-2.282,2.444-4.643,4.73-6.402,7.604c-0.979,1.599-2.338,2.907-3.685,4.206c-0.682,0.656-1.423,1.242-2.181,1.809
			c-0.135,0.104-0.265,0.215-0.393,0.326c0.063-0.102,0.132-0.199,0.187-0.311c0.589-1.201-0.003-2.631-0.213-3.852
			c-0.409-2.369-1.026-4.623-1.105-7.051c-0.071-2.192,0.497-4.345,0.827-6.492c0.049-0.316,0.065-0.629,0.065-0.941
			c0.037-0.048,0.067-0.098,0.082-0.141c0.188-0.557,0.181-1.061,0.149-1.645c-0.017-0.322,0.107-0.59,0.277-0.837
			c0.098-0.095,0.184-0.205,0.247-0.324c0.112-0.138,0.225-0.276,0.321-0.419c0.822,0.219,1.824-0.199,2.476-1.023
			c0.729-0.922,0.549-2.523,0.792-3.588c0.486-2.129,0.886-4.305,3.019-5.262c1.18-0.529,2.026-1.234,2.744-2.314
			c0.287-0.43,0.997-2.33,1.745-2.047c0.576,0.219,1.062,0.609,1.702,0.65c1.02,0.068,1.409-0.725,1.845-1.486
			c1.043-1.822,1.547-3.666,2.292-5.608c0.716-1.867,1.549-3.661,2.657-5.331c0.943-1.42,2.081-1.529,3.513-0.686
			c0.28,0.165,0.722,0.307,1.06,0.242c1.117-0.213,1.755-0.758,2.329-1.727c1.037-1.75,1.889-3.628,2.796-5.449
			c0.383-0.77,1.754-4.275,2.933-3.762c0.278,0.122,0.551,0.181,0.811,0.175c0.379-0.362,0.822-0.628,1.384-0.743
			c0.066-0.014,0.158,0.002,0.171,0.086c0.538,3.316,0.352,6.67,1.09,9.965C164.532,55.082,164.901,56.395,164.704,57.583z"/>
		<g>
			<path d="M119.418,73.971c-4.494-1.41-9.056-2.684-13.642-3.756c-2.077-0.486-4.156-0.957-6.26-1.313
				c-1.776-0.301-4.645-0.273-6.165-1.328c-0.08-0.055-0.169,0.066-0.108,0.135c0.905,1.008,2.578,1.4,3.851,1.699
				c2.432,0.569,4.851,1.304,7.274,1.924c4.896,1.252,9.804,2.566,14.807,3.318C119.508,74.701,119.791,74.088,119.418,73.971z"/>
			<path d="M128.484,72.521c-1.069,0.922-2.309,2.49-3.87,2.068c-0.05-0.014-0.106,0.057-0.061,0.096
				c0.645,0.567,1.327,0.703,2.108,0.371c0.927-0.395,1.806-1.286,2.322-2.13C129.186,72.595,128.767,72.278,128.484,72.521z"/>
			<path d="M144.691,54.174c-4.543,4.385-8.954,9.092-12.502,14.314c-0.034,0.049-0.007,0.133,0.063,0.098
				c0.625-0.307,1.111-1.002,1.599-1.49c1.22-1.221,2.316-2.585,3.499-3.846c2.635-2.805,5.413-5.545,7.783-8.582
				C145.387,54.344,145.027,53.85,144.691,54.174z"/>
		</g>
		<g>
			<path d="M122.952,48.659c-2.761-1.591-6.193-1.744-9.275-1.224c-2.331,0.394-5.086,1.492-6.962,3.179
				c-0.399,0.275-0.792,0.581-1.176,0.931c-2.248,2.051-3.635,5.035-2.563,8.042c1.059,2.974,5.479,4.798,8.273,5.447
				c3.513,0.815,7.28,0.36,10.429-1.36c3.129-1.709,4.928-4.266,5.5-7.739C127.675,52.913,125.423,50.083,122.952,48.659z"/>
			<path style="fill:#D32315;" d="M121.33,62.445c-5.083,2.811-11.41,1.354-15.851-1.921c-3.131-2.308-1.902-5.982,0.24-8.437
				c0.043-0.003,0.092-0.022,0.135-0.068c3.335-3.531,10.255-4.643,14.775-3.148c2.701,0.893,4.814,2.627,5.639,5.419
				C127.31,57.813,124.045,60.943,121.33,62.445z"/>
			<path style="fill:#8D1816;" d="M126.269,54.29c-0.399-1.35-1.104-2.447-2.026-3.327c-0.133,0.297-0.282,0.58-0.452,0.832
				c-0.253,0.378-0.72,0.945-1.256,0.75c-0.423-0.154-0.621-0.521-0.738-0.924c-0.051-0.024-0.103-0.053-0.15-0.102
				c-1.986-2.001-6.82-1.543-9.309-0.714c-0.748,0.249-1.53,0.508-2.197,0.942c-1.539,1.002,0.897,1.223,1.526,1.252
				c2.07,0.098,4.109-0.133,6.167-0.334c0.745-0.072,3.766-0.484,3.21,1.177c-0.423,1.265-2.927,2.052-4.135,2.392
				c-3.424,0.968-7.982,1.752-11.448,0.594c-0.849-0.283-1.399-0.664-1.721-1.105c-0.411,1.726-0.046,3.486,1.739,4.802
				c4.44,3.274,10.768,4.732,15.851,1.921C124.045,60.943,127.31,57.813,126.269,54.29z"/>
			<path d="M118.469,51.442c-0.644,0.243-2.285,0.686-3.967,0.899c-0.31-2.283-0.235-4.456,0.111-6.756
				c0.3-1.998,0.889-7.237,3.005-8.124c0.187-0.078,0.262-0.45-0.005-0.464c-0.692-0.032-0.41-0.061-1.076,0.102
				c-0.039,0.01-0.06,0.074-0.009,0.082c0.115,0.037,0.229,0.073,0.343,0.109c-1.996,1.158-2.493,4.797-2.961,6.738
				c-0.579,2.396-1.156,5.898-0.185,8.394c-2.051,0.161-3.943-0.122-3.916-1.644c0.002-0.117-0.152-0.098-0.188-0.014
				c-0.66,1.518,0.731,2.485,2.159,2.695c2.34,0.344,4.855-0.066,6.904-1.267C119.099,51.949,119.03,51.23,118.469,51.442z"/>
		</g>
		<g>
			<path d="M126.818,58.306c-1.827-0.466-3.595-0.09-5.019,0.987c-0.231,0.176-0.613,0.527-0.772,0.871
				c-0.743-0.263-1.501-0.486-2.294-0.623c-1.683-0.288-2.844,0.396-3.773,1.389c-0.879-0.52-1.79-0.908-2.904-1.002
				c-1.028-0.086-1.936,0.276-2.466,0.875c-2.306-1.719-4.957-0.188-5.927,2.085c-1.01,2.369,0.438,5.237,3.06,6.033
				c0.415,0.633,0.986,1.172,1.679,1.524c3.643,1.853,8.817,0.762,11.865-1.556c0.305,0.069,0.601,0.115,0.877,0.138
				c2.344,0.183,6.226-1.34,6.754-3.589c0.027-0.116-0.04-0.19-0.131-0.213c0.802-0.958,1.441-2.038,1.475-3.239
				C129.289,60.299,128.777,58.807,126.818,58.306z"/>
			<path style="fill:#FFFFFF;" d="M126.261,66.447c-1.339,0.957-2.943,1.357-4.813,1.369c-1.501,0.01-4.811-1.093-5.121-2.727
				c-0.01-0.057-0.101-0.021-0.108,0.02c-0.259,1.619,1.363,2.864,3.064,3.488c-2.477,1.012-5.002,1.625-7.782,1.26
				c-1.35-0.176-2.639-0.546-3.553-1.496c-1.29-1.337-1.543-3.795,0.141-4.988c0.039-0.027,0.018-0.096-0.037-0.07
				c-1.997,0.889-2.438,2.874-1.836,4.592c-1.17-0.854-1.832-2.18-1.992-3.56c-0.304-2.604,2.65-4.598,5.257-3.401
				c-0.41,0.546-0.526,1.258-0.174,2.006c0.035,0.074,0.15,0.025,0.146-0.043c-0.152-2.213,2.426-1.842,3.578-1.396
				c0.368,0.142,0.723,0.313,1.075,0.491c-0.022,0.03-0.044,0.061-0.064,0.09c-0.033,0.046,0.013,0.115,0.067,0.068
				c0.039-0.033,0.076-0.064,0.114-0.098c0.602,0.313,1.185,0.656,1.759,0.992c1.391,0.815,2.975,1.197,4.62,1.038
				c0.243-0.024,0.448-0.474,0.135-0.532c-1.902-0.35-3.365-1.039-4.909-2.071c-0.157-0.104-0.313-0.207-0.471-0.307
				c0.19-0.124,0.388-0.241,0.606-0.347c1.456-0.704,3.323,0.117,4.643,0.68c1.821,0.775,3.293,1.49,5.351,1.119
				c0.253-0.047,0.479-0.473,0.143-0.565c-1.652-0.452-3.179-1.196-4.765-1.784c0.432-0.519,1.9-0.924,2.121-0.975
				c1.284-0.297,3.275-0.119,4.158,0.854C129.602,62.346,127.581,64.548,126.261,66.447z"/>
			<path style="fill:#DDDAD7;" d="M128.151,60.927c0.027,0.104,0.059,0.206,0.081,0.315c0.093,0.458-0.329,0.74-0.734,0.564
				c-1.866-0.813-3.305-1.799-5.253-1.625c1.084,0.742,2.462,1.039,3.531,1.775c0.108,0.032,0.214,0.072,0.323,0.103
				c0.16,0.044,0.188,0.165,0.15,0.283c0.205,0.191,0.397,0.401,0.558,0.655c0.254,0.399-0.161,0.81-0.564,0.734
				c-2.258-0.422-4.586-0.776-6.734-1.612c-1.174-0.456-2.284-1.03-3.469-1.321c-0.025,0.012-0.052,0.016-0.077,0.027
				c-0.187,0.09-0.354,0.192-0.519,0.297c0.104,0.113,0.214,0.217,0.325,0.318c0.02,0.013,0.039,0.025,0.059,0.038
				c0.89,0.595,1.763,1.063,2.698,1.431c2.17,0.617,4.679,0.597,6.853,1.533c0.4,0.172,0.278,0.828-0.12,0.914
				c-2.188,0.471-4.319,0.26-6.495-0.189c-1.687-0.35-3.253-1.085-4.899-1.535c0.635,0.941,1.287,1.867,1.99,2.764
				c0.321,0.41-0.096,1.133-0.606,0.785c-1.246-0.85-2.556-1.565-3.671-2.566c-0.296,1.051,0.049,1.953,1.051,2.703
				c0.37,0.285,0.29,0.931-0.252,0.932c-3.564,0.008-5.223-3.258-3.815-6.193c-1.364,0.036-2.431,0.953-3.128,2.07
				c-0.208,0.334-0.84,0.334-0.914-0.119c-0.072-0.443-0.092-0.848-0.07-1.232c-0.198,0.476-0.289,1.002-0.225,1.56
				c0.16,1.38,0.822,2.705,1.992,3.56c-0.602-1.718-0.162-3.703,1.836-4.592c0.055-0.025,0.076,0.043,0.037,0.07
				c-1.683,1.193-1.43,3.651-0.141,4.988c0.914,0.95,2.204,1.32,3.553,1.496c2.781,0.365,5.306-0.248,7.782-1.26
				c-1.701-0.624-3.323-1.869-3.064-3.488c0.007-0.041,0.098-0.076,0.108-0.02c0.31,1.634,3.62,2.736,5.121,2.727
				c1.87-0.012,3.474-0.412,4.813-1.369C127.426,64.771,129.133,62.858,128.151,60.927z"/>
		</g>
	</g>
	<path style="fill:#FFFFFF;" d="M183.298,84.956c-21.453,16.39-47.475,25.655-75.375,26.622
		c-15.479,0.538-31.087-1.055-46.268-3.756c-14.979-2.666-27.335-8.536-40.528-15.244c-0.304-0.154-0.594,0.279-0.322,0.473
		c10.926,7.733,23.225,13.588,36.559,16.789c15.843,3.803,32.51,5.016,48.845,4.832c15.254-0.17,29.437-3.24,43.672-8.098
		c13.309-4.542,24.814-11.026,33.89-21.146C184.018,85.153,183.61,84.718,183.298,84.956z"/>
	<g>
		<path style="opacity:0.6;fill:#C2A37E;" d="M70.266,71.021c-0.554-0.445-1.343-0.488-1.93-0.077
			c-0.115,0.081-0.194,0.177-0.276,0.272c-0.243,0.017-0.484,0.05-0.688,0.122c-0.588,0.21-1.091,0.822-1.157,1.449
			c-0.112,1.064,0.575,1.997,1.585,2.313c1.041,0.324,2.088,0.296,2.895-0.536C71.611,73.621,71.217,71.786,70.266,71.021z"/>
		<path style="opacity:0.6;fill:#C2A37E;" d="M69.774,77.745c-0.286,0.044-0.461,0.188-0.548,0.385
			c-0.348,0.392-0.165,0.849,0.197,1.155c0.254,0.359,0.653,0.572,1.063,0.31c0.236-0.063,0.428-0.241,0.503-0.585
			c0.027-0.044,0.054-0.088,0.08-0.133C71.565,78.057,70.467,77.378,69.774,77.745z"/>
		<path style="opacity:0.6;fill:#C2A37E;" d="M79.033,68.688c0.184-0.059-0.181,0.041-0.189,0.043
			c-0.23,0.041-0.459,0.092-0.686,0.15c-0.276,0.072-0.535,0.217-0.78,0.377c-0.058,0.033-0.112,0.068-0.166,0.109
			c-0.04,0.027-0.085,0.052-0.123,0.08c-1.238,0.92-0.576,3.053,1.041,2.887c0.34-0.034,0.653-0.156,0.922-0.33
			c0.614-0.168,1.124-0.643,1.522-1.115C81.485,69.804,80.321,68.276,79.033,68.688z"/>
		<path style="opacity:0.6;fill:#C2A37E;" d="M89.951,64.249c0.026-0.392-0.066-0.744-0.275-1.028
			c-0.174-0.646-0.884-1.137-1.585-0.869c-0.269,0.103-0.548,0.16-0.789,0.329c-0.642,0.449-0.843,1.397-0.509,2.087
			c0.39,0.806,1.093,1.18,1.975,0.939c0.316-0.087,0.633-0.295,0.844-0.549c0.17-0.207,0.279-0.443,0.327-0.708
			C89.984,64.259,89.989,63.672,89.951,64.249z"/>
		<g style="opacity:0.6;">
			<path style="fill:#C2A37E;" d="M77.548,63.045c0.01-0.003,0.019-0.002,0.029-0.004C77.65,63.012,77.67,63.002,77.548,63.045z"/>
			<path style="fill:#C2A37E;" d="M79.004,63.918c-0.033-0.412-0.384-0.885-0.83-0.91c-0.208-0.013-0.396-0.031-0.597,0.033
				c-0.147,0.059-0.53,0.205-0.521,0.199c-0.541,0.378-0.676,1.145-0.297,1.686c0.716,1.022,2.046,0.367,2.174-0.581
				C78.984,64.213,79.017,64.072,79.004,63.918z"/>
		</g>
		<path style="opacity:0.6;fill:#C2A37E;" d="M48.659,66.85c-0.037-0.006-0.076-0.008-0.113-0.013
			c-0.512-0.31-1.209-0.267-1.726,0.038c-0.654,0.139-1.255,0.443-1.657,1.02c-0.584,0.842-0.524,2.28,0.612,2.681
			c1.151,0.405,2.15,0.366,3.057-0.52c0.491-0.479,0.601-1.238,0.472-1.921C49.534,67.624,49.303,66.945,48.659,66.85z"/>
		<path style="opacity:0.6;fill:#C2A37E;" d="M44.259,73.669c-0.471-0.612-1.45-0.738-1.958-0.079
			c-0.162,0.211-0.284,0.418-0.32,0.687c-0.094,0.695,0.333,1.368,1.046,1.493c0.786,0.139,1.621-0.545,1.509-1.375
			C44.498,74.119,44.431,73.893,44.259,73.669z"/>
		<path style="opacity:0.6;fill:#C2A37E;" d="M33.783,67.721c0.008-0.436-0.276-0.748-0.652-0.888c0.002,0,0.004,0,0.006,0
			c-0.438-0.228-0.98-0.185-1.383,0.102c-0.578,0.411-0.729,1.228-0.319,1.812c0.458,0.654,1.571,0.781,2.068,0.083
			C33.732,68.508,33.86,68.107,33.783,67.721z"/>
		<path style="opacity:0.6;fill:#C2A37E;" d="M84.755,76.946c-0.412-0.723-1.116-1.022-1.84-1.327
			c-0.935-0.391-2.037-0.031-2.471,0.915c-0.143,0.312-0.185,0.671-0.141,1.021c-0.034,0.041-0.078,0.07-0.109,0.115
			c-0.672,0.922-0.403,2.078,0.598,2.621c0.674,0.364,1.522,0.449,2.246,0.173c0.669-0.256,1.131-0.806,1.629-1.293
			C85.279,78.57,85.13,77.605,84.755,76.946z"/>
		<path style="opacity:0.6;fill:#C2A37E;" d="M74.152,83.059l-0.249,0.012c-0.645,0.03-1.134,0.65-1.083,1.276
			c0.057,0.706,0.633,1.054,1.276,1.083c0.084,0.004,0.167,0.008,0.251,0.012c0.653,0.03,1.142-0.702,1.094-1.289
			C75.387,83.486,74.802,83.027,74.152,83.059z"/>
		<path style="opacity:0.6;fill:#C2A37E;" d="M86.681,70.313c-0.025-0.015-0.05-0.029-0.075-0.045
			c-0.426-0.256-1.009-0.041-1.309,0.299c-0.76,0.863,0,1.986,1.037,1.949c0.571-0.02,0.893-0.51,0.909-1.002
			C87.363,71.052,87.123,70.578,86.681,70.313z"/>
		<path style="opacity:0.6;fill:#C2A37E;" d="M101.041,89.6c-1.098-0.117-1.92,0.652-1.936,1.651
			c-0.507,0.34-0.887,0.896-1.156,1.421c-0.472,0.921-0.002,2.248,0.973,2.629c0.877,0.344,1.74,0.424,2.63,0.074
			c0.78-0.308,1.443-0.904,1.774-1.682C104.063,91.965,102.96,89.804,101.041,89.6z"/>
		<path style="opacity:0.6;fill:#C2A37E;" d="M117.193,96.023c0.043-0.172,0.064-0.348,0.027-0.541
			c-0.001-0.004-0.003-0.008-0.003-0.012c-0.011-0.078-0.035-0.154-0.059-0.231c0.044-0.564-0.438-0.988-0.973-1.092
			c-0.09-0.034-0.17-0.08-0.272-0.1c-0.331-0.066-0.623-0.034-0.94,0.072c-0.009,0.002-0.017,0.008-0.026,0.012
			c-0.423,0.129-0.786,0.41-0.94,0.87l-0.001,0.003c-0.009,0.027-0.013,0.056-0.021,0.083c-0.148,0.374-0.175,0.798-0.035,1.188
			c0.051,0.143,0.124,0.27,0.206,0.387c0.155,0.238,0.375,0.441,0.679,0.582c0.156,0.071,0.331,0.108,0.51,0.127
			c0.041,0.004,0.08,0.013,0.122,0.015c0.002,0,0.005-0.001,0.008-0.001c0.209,0.01,0.423-0.016,0.631-0.084
			c0.001-0.001,0.002-0.001,0.003-0.002c0.007-0.002,0.013-0.006,0.02-0.009c0.429-0.142,0.798-0.437,0.945-0.876
			c0.011-0.031,0.021-0.063,0.032-0.095C117.143,96.225,117.172,96.125,117.193,96.023z"/>
		<path style="opacity:0.6;fill:#C2A37E;" d="M110.807,91.986c-0.222-0.055-0.423-0.1-0.657-0.086
			c-0.044,0.002-0.073,0.007-0.094,0.012c-0.01-0.009-0.021-0.018-0.042-0.03c-0.467-0.278-1.14-0.056-1.463,0.334
			c-0.468,0.566-0.294,1.243,0.164,1.733c0.598,0.639,1.507,0.68,2.298,0.51c0.553-0.119,0.891-0.797,0.849-1.314
			C111.814,92.54,111.371,92.125,110.807,91.986z"/>
		<path style="opacity:0.6;fill:#C2A37E;" d="M116.43,87.178c-0.603-0.545-1.595-0.127-1.73,0.637
			c-0.125,0.709,0.48,1.266,1.113,1.24c0.36,0.078,0.749-0.123,0.933-0.462C117.014,88.098,116.826,87.536,116.43,87.178z"/>
		<path style="opacity:0.6;fill:#C2A37E;" d="M137.892,82.695c0.284-0.559-0.067-1.332-0.719-1.426
			c-2.489-0.359-4.539,1.843-5.063,4.104c-0.209,0.902,0.363,2.016,1.232,2.352c1.501,0.58,3.168,0.256,4.27-0.952
			C138.582,85.71,138.903,83.803,137.892,82.695z"/>
		<path style="opacity:0.6;fill:#C2A37E;" d="M131.341,89.059c-0.014,0.01-0.018,0.014-0.03,0.022
			c-0.689-0.022-1.395,0.47-1.265,1.268c0.146,0.892,0.739,1.646,1.735,1.536c0.478-0.053,0.994-0.346,1.17-0.818
			c0.15-0.402,0.185-0.734,0.192-1.16C133.161,89.008,132.001,88.6,131.341,89.059z"/>
		<path style="opacity:0.6;fill:#C2A37E;" d="M141.364,74.145c-0.08-0.098-0.164-0.191-0.253-0.28
			c0.168,0.166,0.129,0.12-0.117-0.139c-0.213-0.209-0.499-0.331-0.792-0.368c-1.393-0.18-1.795,1.687-0.633,2.187
			c0.504,0.302,0.934,0.425,1.537,0.069C141.571,75.339,141.712,74.563,141.364,74.145z"/>
		<path style="opacity:0.6;fill:#C2A37E;" d="M154.426,64.671c-0.564-0.831-1.751-1.021-2.564-0.452
			c-0.285,0.199-0.482,0.459-0.608,0.745c-0.71,0.497-1.143,1.425-1.306,2.218c-0.161,0.783,0.298,1.67,1.037,1.98
			c1.171,0.492,2.905,0.475,3.687-0.709C155.488,67.218,155.225,65.848,154.426,64.671z"/>
		<path style="opacity:0.6;fill:#C2A37E;" d="M159.366,56.709c-0.02-0.04-0.04-0.078-0.055-0.121v0.001
			c-0.189-0.555-0.716-0.96-1.405-0.941c-0.252,0.007-0.58,0.103-0.772,0.274c-0.648,0.583-0.755,1.242-0.354,2.01
			c0.184,0.354,0.619,0.584,1.001,0.652c0.689,0.121,1.2-0.25,1.54-0.801c0.097-0.155,0.134-0.424,0.117-0.611
			C159.437,57.016,159.419,56.861,159.366,56.709z"/>
		<path style="opacity:0.6;fill:#C2A37E;" d="M151.412,59.926c-1.394,0-1.203,2.148,0.177,2.148
			C152.982,62.074,152.791,59.926,151.412,59.926z"/>
	</g>
	<path style="fill:#FFE3C2;" d="M47.571,73.78c-0.497,0.376-0.772,0.853-0.728,1.423c-0.23,0.891,0.639,1.548,1.464,1.094
		c0.158-0.082,0.188-0.1,0.089-0.055c0.138-0.057,0.267-0.129,0.385-0.218c0.293-0.204,0.387-0.485,0.543-0.78
		C49.879,74.203,48.493,73.083,47.571,73.78z"/>
	<path style="fill:#FFE3C2;" d="M36.184,68.443c-1.045,0-0.902,1.613,0.133,1.613C37.362,70.057,37.218,68.443,36.184,68.443z"/>
	<path style="fill:#FFE3C2;" d="M76.512,75.082c-0.393-0.734-1.472-0.961-2.198-0.702c-0.393,0.14-0.754,0.441-0.994,0.815
		c-0.29,0.213-0.53,0.502-0.641,0.832c-0.339,1.008,0.064,2.134,1.168,2.395c0.944,0.72,2.196,0.486,2.846-0.644
		C77.195,76.905,76.954,75.909,76.512,75.082z"/>
	<path style="fill:#FFE3C2;" d="M68.378,84.523c-0.316-0.094-0.576,0.002-0.839,0.135c-1.086,0.287-0.702,1.948,0.51,1.682
		c0.146-0.033,0.268-0.102,0.392-0.183c0.031-0.021,0.625-0.59,0.232-0.302C69.232,85.445,68.978,84.699,68.378,84.523z"/>
	<path style="fill:#FFE3C2;" d="M78.9,82.146c-0.081-0.016-0.161-0.031-0.242-0.047c-1.378-0.263-1.346,2.051-0.084,1.812
		l0.246-0.047C79.753,83.688,79.923,82.342,78.9,82.146z"/>
	<path style="fill:#FFE3C2;" d="M115.536,90.4c-0.222-0.047-0.492-0.047-0.745,0.007c-0.161-0.013-0.321,0.019-0.466,0.102
		c-1.277,0.25-1.669,2.048-0.591,2.877c0.617,0.476,1.503,0.622,2.167,0.128c0.561-0.417,0.985-0.995,0.892-1.734
		C116.704,91.074,116.231,90.55,115.536,90.4z"/>
	<path style="fill:#FFE3C2;" d="M134.025,92.996c-0.249-0.193-0.564-0.338-0.903-0.435c-0.208-0.148-0.434-0.265-0.676-0.284
		c-0.776-0.066-1.51,0.259-1.955,0.864c-0.02,0.025-0.037,0.054-0.056,0.081c-0.092,0.139-0.174,0.285-0.234,0.45
		c-0.075,0.207-0.115,0.419-0.134,0.63c-0.087,0.139-0.167,0.281-0.224,0.436c-0.457,1.254,0.357,2.701,1.807,2.58
		c1.009-0.086,1.618-0.65,2.274-1.28c0.125-0.095,0.245-0.198,0.36-0.313C135.013,94.992,134.803,93.6,134.025,92.996z"/>
	<path style="fill:#FFE3C2;" d="M143.736,77.777c-0.128-0.176-0.281-0.314-0.471-0.391c-0.015-0.01-0.027-0.022-0.042-0.029
		c-0.311-0.183-0.646-0.234-0.977-0.199c-0.283,0.01-0.541,0.1-0.76,0.251c-0.028,0.016-0.059,0.024-0.086,0.04l0.015,0.01
		c-0.717,0.556-0.959,1.742-0.116,2.496c0.654,0.586,1.47,0.441,2.162,0.051c0.458-0.259,0.689-0.883,0.649-1.381
		C144.083,78.279,143.941,78.006,143.736,77.777z"/>
	<path style="fill:#FFE3C2;" d="M137.903,76.293c-0.043-0.051-0.087-0.102-0.129-0.152c-0.057-0.061-0.113-0.123-0.17-0.184
		c-0.024-0.016-0.036-0.023-0.056-0.036c-0.317-0.927-1.691-0.529-1.662,0.399c0.029,0.961,0.969,1.604,1.821,1.082
		C138.052,77.191,138.174,76.609,137.903,76.293z"/>
	<path style="fill:#FFE3C2;" d="M148.625,73.563c-0.398-0.225-0.941-0.27-1.339-0.111c-0.169,0.068-0.338,0.142-0.484,0.251
		c-1.637,1.226-0.312,3.796,1.635,3.169c0.013-0.004,0.026-0.008,0.039-0.012c0.581-0.188,1.018-0.736,1.122-1.329
		c0.003-0.014,0.005-0.028,0.007-0.042C149.742,74.711,149.318,73.906,148.625,73.563z"/>
	<path style="fill:#FFE3C2;" d="M150.181,66.359c-0.211-0.771-0.877-1.102-1.609-1.129c-0.541-0.019-0.976,0.369-1.271,0.775
		c-0.023,0.031-0.031,0.059-0.051,0.089c-0.386,0.096-0.736,0.317-0.974,0.644c-0.501,0.686-0.498,1.674,0.212,2.236
		c0.986,0.779,2.333,0.686,3.209-0.199C150.321,68.146,150.4,67.16,150.181,66.359z"/>
	<path style="fill:#FFE3C2;" d="M163.314,49.654c-0.492-0.703-1.4-0.98-2.205-0.705c-0.286,0.099-0.529,0.261-0.746,0.459
		c-0.008,0.005-0.009,0.004-0.02,0.01c-0.105,0.058-0.096,0.053,0.016-0.006c-0.008,0.008-0.015,0.015-0.023,0.022
		c-0.483,0.278-0.847,0.662-0.951,1.254c-0.138,0.779,0.278,1.62,1.015,1.938c1.099,0.476,2.634,0.191,3.085-1.079
		C163.717,50.896,163.728,50.244,163.314,49.654z"/>
	<path style="fill:#FFE3C2;" d="M131.142,42.68c-1.712,0-1.477,2.641,0.217,2.641C133.071,45.32,132.835,42.68,131.142,42.68z"/>
	<path style="opacity:0.6;fill:#D6A47E;" d="M98.111,96.711c-2.29-2.686-2.449-9.129-2.157-12.465
		c0.247-2.815,2.632-4.485,5.103-2.502c0.944,0.758,1.531,1.684,2.003,2.695c-0.039-0.117-0.084-0.229-0.119-0.349
		c-0.535-1.815-1.001-4.226-2.574-5.473c-1.835-1.452-2.956,1.837-4.354,2.3c-1.015,0.336-1.919,0.187-2.627-0.285
		c0.454,3.299,1.113,6.604,1.282,9.934c0.085,1.68,0.15,3.328,0.677,4.94c0.448,1.37,0.066,3.538,1.494,4.317
		c1.415,0.773,3.16,0.759,4.743,0.894c0.57,0.049,1.138,0.11,1.707,0.17C101.323,99.745,99.542,98.389,98.111,96.711z"/>
	<path style="opacity:0.6;fill:#D6A47E;" d="M115.494,85.309c0.489-0.845,1.68-0.299,1.629,0.496
		c0.897,0.346,1.648,0.927,2.398,1.537c1.635,1.33,2.855,1.973,4.359,0.039c0.42-0.54,1.303-0.188,1.463,0.387
		c0.335,1.201,0.551,2.458,0.815,3.698c0.026-0.563,0.065-1.128,0.135-1.7c0.217-1.777,0.615-3.425,0.622-5.203
		c-0.187-0.66-0.169-1.344,0.115-1.989c0.009-0.056,0.017-0.11,0.026-0.165c-0.273-0.42-0.343-0.939-0.531-1.432
		c-0.135-0.352-1.374,2.35-1.509,2.609c-0.776,1.502-2.264,2.736-4.075,2.006c-1.35-0.546-2.273-1.557-3.424-2.404
		c-0.868-0.639-2.06-1.365-2.868-0.153c-0.36,0.539-0.637,1.12-0.925,1.699c-0.925,1.86-3.225,4.665-5.6,4.42
		c-2.137-0.22-3.531-1.466-4.424-3.16c0.075,0.197,0.149,0.396,0.226,0.597C106.29,92.807,112.8,89.961,115.494,85.309z"/>
	<path style="opacity:0.6;fill:#D6A47E;" d="M128.239,86.076c1.227-1.865,4.531-2.719,4.972-5.058
		c0.354-1.88,0.547-4.272,1.987-5.71c1.436-1.434,3.897-2.33,4.177-4.559c0.106-0.843,1.122-1.222,1.631-0.441
		c0.45,0.564,0.977,1.034,1.541,1.459c1.54-2.186,2.837-4.501,4.039-6.897c0.777-1.55,0.91-3.981,2.027-5.353
		c0.646-0.793,1.406-1.682,2.517-1.682c2.851,0,4.047-1.51,5.505-3.988c0.818-1.392,2.758-6.633,4.632-6.941
		c0.786-0.13,1.533-0.039,2.257,0.178c-0.077-1.041-0.172-2.081-0.34-3.117c-0.013-0.084-0.105-0.1-0.171-0.086
		c-0.562,0.115-1.005,0.381-1.384,0.743c-0.26,0.006-0.533-0.053-0.811-0.175c-1.179-0.514-2.55,2.992-2.933,3.762
		c-0.908,1.821-1.76,3.699-2.796,5.449c-0.574,0.969-1.212,1.514-2.329,1.727c-0.337,0.064-0.779-0.077-1.06-0.242
		c-1.433-0.844-2.57-0.734-3.513,0.686c-1.108,1.67-1.94,3.464-2.657,5.331c-0.745,1.942-1.249,3.786-2.292,5.608
		c-0.436,0.762-0.826,1.555-1.845,1.486c-0.64-0.041-1.126-0.432-1.702-0.65c-0.747-0.283-1.458,1.617-1.745,2.047
		c-0.718,1.08-1.564,1.785-2.744,2.314c-2.133,0.957-2.533,3.133-3.019,5.262c-0.243,1.064-0.062,2.666-0.792,3.588
		c-0.652,0.824-1.654,1.242-2.476,1.023c-0.096,0.143-0.208,0.281-0.321,0.419c-0.063,0.119-0.149,0.229-0.247,0.324
		c-0.171,0.247-0.294,0.515-0.277,0.837c0.032,0.584,0.039,1.088-0.149,1.645c-0.015,0.043-0.045,0.093-0.082,0.141
		c0,0.313-0.016,0.625-0.065,0.941c-0.065,0.423-0.14,0.847-0.217,1.271C127.748,86.941,127.969,86.487,128.239,86.076z"/>
	<path style="fill:#DDDAD7;" d="M40.376,41.92c-0.088-0.27-0.167-0.549-0.233-0.84c-0.531,0.238-1.042,0.512-1.516,0.851
		c-0.479,0.312-0.903-0.306-0.643-0.721c-0.227,0.169-0.447,0.363-0.668,0.569c-0.038,0.175-0.064,0.354-0.065,0.542
		c-0.005,1.171,0.415,2.344,1.307,3.176C38.241,44.059,38.768,42.517,40.376,41.92z"/>
	<path style="fill:#DDDAD7;" d="M57.219,41.187c-0.011-0.016-0.028-0.028-0.04-0.044c-0.549,1.077-2.18,0.715-3.618,0.386
		c0.715,0.397,1.436,0.786,2.201,1.098c0.271,0.11,0.039,0.444-0.177,0.458c-0.083,0.004-0.16-0.002-0.241,0
		c0.053,0.037,0.107,0.071,0.159,0.109c0.451,0.331,0.191,1.039-0.385,0.914c-1.304-0.282-2.188-0.986-3.37-1.551
		c-1.266-0.604-2.545-1.094-3.884-1.441c0.322,0.474,0.711,0.895,1.139,1.276c0.643,0.38,1.332,0.692,2.127,0.94
		c0.25,0.078,0.051,0.41-0.149,0.425c0.621,0.338,1.265,0.632,1.902,0.886c0.496,0.198,0.471,0.992-0.133,0.982
		c-2.203-0.033-4.206-0.722-6.037-1.953c-0.92-0.619-1.806-1.274-2.682-1.951c-0.499-0.387,0.176,2.559,0.233,2.66
		c0.232,0.453,0.512,0.875,0.839,1.266c0.358,0.445-0.077,1.033-0.606,0.785c-2.095-0.982-3.406-2.407-4.085-4.402
		c-1.347,0.889-1.358,2.838-0.454,4.035c0.669,0.885,1.708,1.323,2.818,1.607c2.288,0.586,4.458,0.327,6.63-0.27
		c-1.358-0.692-2.589-1.896-2.208-3.224c0.009-0.033,0.089-0.054,0.092-0.006c0.094,1.397,2.749,2.653,4.004,2.795
		c1.564,0.179,2.944,0.005,4.16-0.659C56.75,44.854,58.66,43.219,57.219,41.187z"/>
	<path style="fill:#FC6E75;" d="M49.25,35.152c-1.419-0.488-3.061-0.375-4.542-0.475c-0.938-0.063-1.815-0.199-2.682-0.582
		c-1.622-0.717-1.873-3.104-0.801-4.382c0.053-0.063-0.035-0.163-0.1-0.108c-1.688,1.445-2.176,4.121,0.021,5.484
		c2.312,1.433,5.566,1.022,8.088,0.432C49.399,35.482,49.409,35.207,49.25,35.152z"/>
	<path style="fill:#FC6E75;" d="M52.348,34.926c-0.035-0.119-0.097-0.186-0.2-0.249c-0.083-0.051-0.295-0.044-0.327-0.065
		c-0.529-0.353-1.151,0.351-0.643,0.777c0.266,0.223,0.533,0.311,0.865,0.178C52.309,35.46,52.427,35.195,52.348,34.926z"/>
	<path style="fill:#FC6E75;" d="M115.532,21.998c-2.757,1.477-7.21,1.407-9.743-0.645c-0.171-0.14-0.394,0.077-0.279,0.257
		c2.033,3.189,8.318,4.524,11.12,1.578C117.318,22.463,116.278,21.599,115.532,21.998z"/>
	<path style="fill:#FC6E75;" d="M118.305,20.951c-0.186,0.089-0.317,0.223-0.365,0.404c-0.306,0.105-0.434,0.428-0.508,0.711
		c-0.123,0.467,0.382,0.73,0.762,0.644c0.437-0.1,0.792-0.289,1.171-0.523c0.182-0.113,0.294-0.362,0.268-0.572
		C119.557,20.976,118.876,20.68,118.305,20.951z"/>
	<path style="fill:#FC6E75;" d="M117.125,54.125c-1.304-0.128-2.716,0.562-4.024,0.721c-1.554,0.189-3.3,0.236-4.771-0.367
		c-0.425-0.174-0.722,0.348-0.412,0.656c1.164,1.159,2.778,1.471,4.372,1.49c1.549,0.018,4.172-0.059,5.264-1.334
		C117.888,54.902,117.669,54.18,117.125,54.125z"/>
	<path style="fill:#FC6E75;" d="M106.787,52.381c-0.086,0.072-0.156,0.163-0.231,0.248c-0.104,0.025-0.2,0.08-0.255,0.203
		c-0.025,0.057-0.138,0.143-0.18,0.202c-0.115,0.164-0.166,0.336-0.216,0.528c-0.127,0.485,0.552,0.945,0.942,0.6
		c0.311-0.275,0.666-0.65,0.837-1.033C107.916,52.611,107.268,51.979,106.787,52.381z"/>
</g>
</svg>
